<?xml version="1.0" encoding="UTF-8"?>
<!DOCTYPE svg PUBLIC "-//W3C//DTD SVG 1.1//EN" "http://www.w3.org/Graphics/SVG/1.1/DTD/svg11.dtd">
<svg xmlns="http://www.w3.org/2000/svg" version="1.1" width="512px" height="512px" style="shape-rendering:geometricPrecision; text-rendering:geometricPrecision; image-rendering:optimizeQuality; fill-rule:evenodd; clip-rule:evenodd" xmlns:xlink="http://www.w3.org/1999/xlink">
<g><path style="opacity:0.981" fill="#000000" d="M 249.5,-0.5 C 253.5,-0.5 257.5,-0.5 261.5,-0.5C 265.479,1.31481 268.312,4.31481 270,8.5C 270.667,35.1667 270.667,61.8333 270,88.5C 264.008,98.6057 255.841,100.772 245.5,95C 243.383,93.2691 241.883,91.1024 241,88.5C 240.333,61.8333 240.333,35.1667 241,8.5C 242.688,4.31481 245.521,1.31481 249.5,-0.5 Z"/></g>
<g><path style="opacity:0.954" fill="#000000" d="M 73.5,64.5 C 78.777,63.9312 83.777,64.7645 88.5,67C 101.667,80.1667 114.833,93.3333 128,106.5C 132.532,113.97 132.032,121.136 126.5,128C 120.543,131.763 114.21,132.429 107.5,130C 93.6667,116.167 79.8333,102.333 66,88.5C 60.8036,77.9859 63.3036,69.9859 73.5,64.5 Z"/></g>
<g><path style="opacity:0.954" fill="#000000" d="M 426.5,64.5 C 444.269,63.7549 450.436,71.7549 445,88.5C 431.167,102.333 417.333,116.167 403.5,130C 390.222,134.514 382.222,130.014 379.5,116.5C 380.106,112.972 381.272,109.639 383,106.5C 397.092,91.9055 411.592,77.9055 426.5,64.5 Z"/></g>
<g><path style="opacity:0.964" fill="#000000" d="M 244.5,125.5 C 298.987,123.488 340.487,145.488 369,191.5C 388.351,228.392 390.517,266.225 375.5,305C 399.167,305.333 422.833,305.667 446.5,306C 456.386,312.039 458.552,320.206 453,330.5C 449.888,333.806 446.055,335.639 441.5,336C 317.5,336.667 193.5,336.667 69.5,336C 60.2977,334.964 55.2977,329.797 54.5,320.5C 55.3258,313.856 58.6592,309.022 64.5,306C 88.1667,305.667 111.833,305.333 135.5,305C 117.589,257.179 124.089,213.012 155,172.5C 178.706,145.065 208.539,129.398 244.5,125.5 Z M 245.5,156.5 C 298.342,155.538 333.509,179.871 351,229.5C 357.595,255.738 354.429,280.738 341.5,304.5C 284.167,305.833 226.833,305.833 169.5,304.5C 146.761,257.031 154.428,215.198 192.5,179C 208.282,166.911 225.949,159.411 245.5,156.5 Z"/></g>
<g><path style="opacity:0.981" fill="#000000" d="M -0.5,261.5 C -0.5,257.5 -0.5,253.5 -0.5,249.5C 1.31481,245.521 4.31481,242.688 8.5,241C 35.1667,240.333 61.8333,240.333 88.5,241C 98.6057,246.992 100.772,255.159 95,265.5C 93.2691,267.617 91.1024,269.117 88.5,270C 61.8333,270.667 35.1667,270.667 8.5,270C 4.31481,268.312 1.31481,265.479 -0.5,261.5 Z"/></g>
<g><path style="opacity:0.981" fill="#000000" d="M 511.5,249.5 C 511.5,253.5 511.5,257.5 511.5,261.5C 509.685,265.479 506.685,268.312 502.5,270C 475.833,270.667 449.167,270.667 422.5,270C 412.394,264.008 410.228,255.841 416,245.5C 417.731,243.383 419.898,241.883 422.5,241C 449.167,240.333 475.833,240.333 502.5,241C 506.685,242.688 509.685,245.521 511.5,249.5 Z"/></g>
<g><path style="opacity:0.962" fill="#000000" d="M 157.5,363.5 C 222.834,363.333 288.168,363.5 353.5,364C 364.604,368.56 367.771,376.394 363,387.5C 360.736,390.433 357.902,392.6 354.5,394C 288.5,394.667 222.5,394.667 156.5,394C 146.132,388.896 143.299,381.063 148,370.5C 150.529,367.115 153.696,364.782 157.5,363.5 Z"/></g>
</svg>
