<?xml version="1.0" encoding="UTF-8"?>
<!DOCTYPE svg PUBLIC "-//W3C//DTD SVG 1.1//EN" "http://www.w3.org/Graphics/SVG/1.1/DTD/svg11.dtd">
<svg xmlns="http://www.w3.org/2000/svg" version="1.1" width="512px" height="512px" style="shape-rendering:geometricPrecision; text-rendering:geometricPrecision; image-rendering:optimizeQuality; fill-rule:evenodd; clip-rule:evenodd" xmlns:xlink="http://www.w3.org/1999/xlink">
<g><path style="opacity:0.98" fill="#000000" d="M 249.5,-0.5 C 253.5,-0.5 257.5,-0.5 261.5,-0.5C 265.479,1.31481 268.312,4.31481 270,8.5C 270.667,32.8333 270.667,57.1667 270,81.5C 264.848,90.4747 257.348,92.9747 247.5,89C 244.527,87.2352 242.36,84.7352 241,81.5C 240.333,57.1667 240.333,32.8333 241,8.5C 242.688,4.31481 245.521,1.31481 249.5,-0.5 Z"/></g>
<g><path style="opacity:0.94" fill="#000000" d="M 51.5,40.5 C 56.984,39.8256 61.984,40.9923 66.5,44C 91,68.5 115.5,93 140,117.5C 145.241,125.996 144.408,133.83 137.5,141C 130.598,144.564 123.931,144.231 117.5,140C 93,115.5 68.5,91 44,66.5C 37.5587,55.0084 40.0587,46.3417 51.5,40.5 Z"/></g>
<g><path style="opacity:0.939" fill="#000000" d="M 450.5,40.5 C 462.642,38.8242 469.309,43.9909 470.5,56C 470.526,59.9232 469.359,63.4232 467,66.5C 442.5,91 418,115.5 393.5,140C 387.069,144.231 380.402,144.564 373.5,141C 366.592,133.83 365.759,125.996 371,117.5C 395.5,93 420,68.5 444.5,44C 446.432,42.5415 448.432,41.3748 450.5,40.5 Z"/></g>
<g><path style="opacity:0.946" fill="#000000" d="M 169.5,46.5 C 176.871,45.0485 183.038,47.0485 188,52.5C 193.424,64.4395 198.257,76.6062 202.5,89C 200.513,100.984 193.513,105.984 181.5,104C 178.438,102.939 175.938,101.106 174,98.5C 168.077,86.5577 163.243,74.2244 159.5,61.5C 160.106,54.6055 163.44,49.6055 169.5,46.5 Z"/></g>
<g><path style="opacity:0.946" fill="#000000" d="M 330.5,46.5 C 344.975,44.8132 351.809,51.1465 351,65.5C 346.609,76.6156 341.942,87.6156 337,98.5C 328.038,106.739 319.372,106.405 311,97.5C 309.916,94.7514 309.083,91.9181 308.5,89C 312.743,76.6062 317.576,64.4395 323,52.5C 325.114,49.8792 327.614,47.8792 330.5,46.5 Z"/></g>
<g><path style="opacity:0.962" fill="#000000" d="M 239.5,120.5 C 304.42,116.695 351.254,143.695 380,201.5C 402.218,262.121 390.051,314.621 343.5,359C 300.236,392.562 252.903,399.562 201.5,380C 143.543,351.279 116.71,304.445 121,239.5C 128.866,186.641 157.366,149.808 206.5,129C 217.351,125.038 228.351,122.205 239.5,120.5 Z M 254.5,150.5 C 300.014,152.878 332.514,174.545 352,215.5C 369.085,266.015 356.918,307.848 315.5,341C 275.495,366.996 235.495,366.996 195.5,341C 155.612,309.652 142.779,269.486 157,220.5C 175.173,177.154 207.673,153.821 254.5,150.5 Z"/></g>
<g><path style="opacity:0.945" fill="#000000" d="M 57.5,159.5 C 61.2733,159.263 64.9399,159.763 68.5,161C 78.5825,165.139 88.5825,169.472 98.5,174C 106.739,182.962 106.405,191.628 97.5,200C 94.7514,201.084 91.9181,201.917 89,202.5C 76.6062,198.257 64.4395,193.424 52.5,188C 45.4796,181.259 44.313,173.759 49,165.5C 51.6713,163.098 54.5046,161.098 57.5,159.5 Z"/></g>
<g><path style="opacity:0.946" fill="#000000" d="M 445.5,159.5 C 456.863,158.675 463.529,163.842 465.5,175C 464.5,183.003 460.167,188.337 452.5,191C 442.488,195.256 432.322,199.09 422,202.5C 407.887,199.275 403.554,190.941 409,177.5C 411.559,174.469 414.726,172.302 418.5,171C 427.724,167.434 436.724,163.601 445.5,159.5 Z"/></g>
<g><path style="opacity:0.98" fill="#000000" d="M -0.5,261.5 C -0.5,257.5 -0.5,253.5 -0.5,249.5C 1.31481,245.521 4.31481,242.688 8.5,241C 32.8333,240.333 57.1667,240.333 81.5,241C 90.4747,246.152 92.9747,253.652 89,263.5C 87.2352,266.473 84.7352,268.64 81.5,270C 57.1667,270.667 32.8333,270.667 8.5,270C 4.31481,268.312 1.31481,265.479 -0.5,261.5 Z"/></g>
<g><path style="opacity:0.98" fill="#000000" d="M 511.5,249.5 C 511.5,253.5 511.5,257.5 511.5,261.5C 509.685,265.479 506.685,268.312 502.5,270C 478.167,270.667 453.833,270.667 429.5,270C 420.525,264.848 418.025,257.348 422,247.5C 423.765,244.527 426.265,242.36 429.5,241C 453.833,240.333 478.167,240.333 502.5,241C 506.685,242.688 509.685,245.521 511.5,249.5 Z"/></g>
<g><path style="opacity:0.946" fill="#000000" d="M 87.5,308.5 C 102.664,310.827 107.497,319.16 102,333.5C 99.441,336.531 96.2743,338.698 92.5,340C 83.5,343.667 74.5,347.333 65.5,351C 54.1231,352.309 47.4564,347.309 45.5,336C 46.4996,327.997 50.8329,322.663 58.5,320C 68.2652,316.106 77.9319,312.273 87.5,308.5 Z"/></g>
<g><path style="opacity:0.946" fill="#000000" d="M 420.5,308.5 C 433.471,312.436 446.138,317.27 458.5,323C 465.52,329.741 466.687,337.241 462,345.5C 457.591,350.525 452.091,352.358 445.5,351C 434.384,346.609 423.384,341.942 412.5,337C 404.261,328.038 404.595,319.372 413.5,311C 415.927,310.098 418.26,309.264 420.5,308.5 Z"/></g>
<g><path style="opacity:0.94" fill="#000000" d="M 123.5,367.5 C 135.642,365.824 142.309,370.991 143.5,383C 143.526,386.923 142.359,390.423 140,393.5C 115.5,418 91,442.5 66.5,467C 60.0318,471.237 53.3651,471.57 46.5,468C 39.5967,460.869 38.7634,453.036 44,444.5C 68.5,420 93,395.5 117.5,371C 119.432,369.541 121.432,368.375 123.5,367.5 Z"/></g>
<g><path style="opacity:0.94" fill="#000000" d="M 378.5,367.5 C 383.984,366.826 388.984,367.992 393.5,371C 418,395.5 442.5,420 467,444.5C 472.241,452.996 471.408,460.83 464.5,468C 457.635,471.57 450.968,471.237 444.5,467C 420,442.5 395.5,418 371,393.5C 364.544,382.048 367.044,373.381 378.5,367.5 Z"/></g>
<g><path style="opacity:0.946" fill="#000000" d="M 181.5,406.5 C 193.499,405.008 200.499,410.175 202.5,422C 198.257,434.394 193.424,446.56 188,458.5C 181.402,465.043 173.902,466.209 165.5,462C 160.475,457.591 158.642,452.091 160,445.5C 164.391,434.384 169.058,423.384 174,412.5C 176.114,409.879 178.614,407.879 181.5,406.5 Z"/></g>
<g><path style="opacity:0.946" fill="#000000" d="M 319.5,406.5 C 326.555,405.111 332.388,407.111 337,412.5C 342.923,424.442 347.757,436.776 351.5,449.5C 349.754,461.719 342.754,466.552 330.5,464C 327.438,462.939 324.938,461.106 323,458.5C 317.576,446.56 312.743,434.394 308.5,422C 309.283,414.727 312.95,409.56 319.5,406.5 Z"/></g>
<g><path style="opacity:0.98" fill="#000000" d="M 261.5,511.5 C 257.5,511.5 253.5,511.5 249.5,511.5C 245.521,509.685 242.688,506.685 241,502.5C 240.333,478.167 240.333,453.833 241,429.5C 246.152,420.525 253.652,418.025 263.5,422C 266.473,423.765 268.64,426.265 270,429.5C 270.667,453.833 270.667,478.167 270,502.5C 268.312,506.685 265.479,509.685 261.5,511.5 Z"/></g>
</svg>
