<svg width="215" height="48" viewBox="0 0 215 48" fill="none" xmlns="http://www.w3.org/2000/svg">
<g clip-path="url(#clip0_1482_1383)">
<path d="M4.91357 14.6552C4.51251 17.2462 2.91089 19.0899 0.111328 20.1879L0.111328 20.0383C1.61203 19.1411 2.51245 18.1923 2.81259 17.1972C1.41018 17.2959 0.561538 17.5456 0.261398 17.9449C0.460616 16.7486 0.809905 15.9004 1.31189 15.4028C1.51111 15.2021 2.71167 14.9542 4.91357 14.6552ZM77.5475 22.5804C77.5475 24.0757 77.2474 25.3699 76.6471 26.4675C76.0468 27.7624 75.1464 28.4118 73.9458 28.4118C73.1441 28.4118 72.5438 28.3598 72.145 28.2626C72.145 28.7602 72.145 29.2578 72.145 29.758C72.145 31.7509 71.894 32.9961 71.3946 33.4963C67.3919 38.0802 63.6401 40.3748 60.1394 40.3748C58.6387 40.3748 57.4873 39.6761 56.6878 38.2809C55.9866 37.1826 55.6373 35.937 55.6373 34.5426C55.6373 32.2481 56.1858 29.4073 57.288 26.0193C56.0875 26.9161 54.0848 28.7598 51.2852 31.552C48.1829 34.5426 45.9319 36.6365 44.5321 37.8323C41.9291 39.8256 39.8281 40.823 38.2291 40.823C37.0286 40.823 35.9781 40.2484 35.0777 39.1034C34.1772 37.9565 33.727 36.6357 33.727 35.1404C33.727 33.3456 34.3273 31.0514 35.5279 28.2623C35.326 28.3602 35.0777 28.4114 34.7775 28.4114C34.0763 28.4114 33.476 28.3595 32.9767 28.2623C32.9767 28.7598 32.9767 29.2574 32.9767 29.7576C32.9767 31.7505 32.7748 32.9464 32.3764 33.3464C27.6725 37.9307 23.8716 40.2249 20.9711 40.2249C19.4704 40.2249 18.319 39.6264 17.5195 38.4297C16.7177 37.2342 16.3189 35.7879 16.3189 34.0933C16.3189 33.4952 16.5673 32.1729 17.0693 30.1307C17.5686 28.0858 17.8196 26.3176 17.8196 24.8223C17.8196 23.626 17.6695 22.4783 17.3694 21.383C16.1688 21.0839 14.9683 20.2357 13.7677 18.8409C12.5671 17.4439 11.7654 16.7471 11.3666 16.7471C10.865 16.7471 10.0651 17.5935 8.96547 19.2895C8.16334 20.5837 7.46476 21.8806 6.86448 23.177C9.16468 24.3733 10.3161 26.9643 10.3161 30.9523H9.56575C8.46386 30.454 7.41299 29.9075 6.41427 29.3094C5.41331 28.611 4.91357 27.5639 4.91357 26.1695C2.61112 27.2656 1.46196 28.7609 1.46196 30.6555C1.46196 30.854 2.43741 33.146 4.38833 37.5337C6.33924 41.9187 7.31469 45.4077 7.31469 48.0009H7.01455C6.81271 46.4047 5.66392 43.4634 3.56294 39.1778C1.66118 35.1901 0.711609 32.3 0.711609 30.5056C0.711609 27.912 2.26146 25.5195 5.36378 23.328C5.76259 22.0312 6.76356 20.2862 8.36518 18.0944C10.166 15.5008 11.6153 14.2066 12.7172 14.2066C13.116 14.2066 14.0678 15.1038 15.5686 16.8981C15.3667 16.398 15.2684 15.9004 15.2684 15.4028C15.2684 14.106 15.7186 13.0103 16.619 12.1131C17.5195 11.2159 18.6191 10.7669 19.9206 10.7669C20.9197 10.7669 22.8706 11.2395 25.7733 12.1879C28.6738 13.1337 31.225 13.6084 33.4269 13.6084L31.6261 16.5991C30.224 16.7976 27.973 17.6948 24.8729 19.2907C22.1716 20.6851 19.9206 21.3841 18.1197 21.3841C18.0188 21.3841 17.8196 21.3841 17.5195 21.3841C18.0192 22.7789 18.2698 24.2742 18.2698 25.8701C18.2698 27.1647 18.0939 28.611 17.7446 30.2066C17.3927 31.8009 17.2193 32.6974 17.2193 32.8985C17.2193 36.0877 18.5182 37.6832 21.1211 37.6832C23.0207 37.6832 25.2222 36.6858 27.7242 34.6925C29.3232 33.3957 30.8239 32.0507 32.2263 30.6555C32.2263 29.9568 31.8253 28.8608 31.0258 27.3654C30.6247 26.4682 30.1745 25.571 29.6751 24.6742L30.7256 22.1322C31.6261 23.5269 32.2755 24.4731 32.6765 24.9729C33.3755 25.6694 34.1258 26.0204 34.9276 26.0204C35.9267 26.0204 36.7284 25.6211 37.3287 24.8241C37.3287 23.3288 37.2278 21.8824 37.0286 20.4873L34.4774 4.63721C34.3765 3.64169 34.1772 2.89403 33.8771 2.39422L34.6275 0.300385L37.3287 5.23459V6.13179L35.9781 4.78599C35.8772 4.98711 35.8772 5.18562 35.9781 5.3845L38.2291 20.4869C38.3274 20.8843 38.3792 21.5834 38.3792 22.5808C38.3792 25.5714 37.5771 27.4148 35.9781 28.1135C34.9767 30.3052 34.4774 32.2492 34.4774 33.9452C34.4774 34.8424 34.8267 35.6884 35.5279 36.488C36.3274 37.3849 37.2773 37.8338 38.3792 37.8338C40.18 37.8338 42.4803 36.488 45.2824 33.7965C47.7822 31.5019 50.2843 29.1613 52.7859 26.7684C54.6855 25.1718 56.5377 23.8267 58.3385 22.7307C57.8365 22.5303 57.0862 21.983 56.0875 21.0862C54.6851 19.9879 53.9865 18.7423 53.9865 17.3479C53.9865 15.0537 55.2362 13.9086 57.7383 13.9086C62.5405 13.9086 67.7416 14.7542 73.3455 16.4507L71.3946 19.4413C69.5938 20.0398 66.3414 21.334 61.6401 23.3292C62.1394 24.1262 62.6906 26.0208 63.2908 29.0114C60.5896 29.0114 59.239 28.2118 59.239 26.6189C59.239 26.4181 59.2881 26.0697 59.389 25.5722C59.4877 25.0723 59.5391 24.7236 59.5391 24.5254C59.138 24.8245 58.5381 25.2211 57.7383 25.7209C56.7369 28.9101 56.2376 31.3034 56.2376 32.8989C56.2376 36.088 57.5882 37.6836 60.2894 37.6836C63.1899 37.6836 66.8925 35.3404 71.3946 30.6559C71.2937 29.9572 70.893 28.8611 70.1941 27.3658C69.6925 26.5669 69.2423 25.7209 68.8434 24.8237L69.7439 22.1322C70.6443 23.6275 71.3429 24.5737 71.8448 24.9729C72.4451 25.6694 73.1955 26.0204 74.0959 26.0204C75.0946 26.0204 75.8967 25.6211 76.497 24.8241C76.3961 23.3288 76.246 21.8824 76.0468 20.4873L73.6457 4.78637C73.4438 3.69067 73.2446 2.89366 73.0454 2.39422L73.7958 0.300385L76.3469 5.23496V6.13216L75.1464 4.78599C75.0455 5.08543 75.0455 5.33553 75.1464 5.53366L77.3974 20.4869C77.4961 20.8839 77.5475 21.5826 77.5475 22.5804ZM10.4662 9.27197C10.4662 10.9658 9.91503 11.8144 8.8154 11.8144C7.81405 11.8144 7.31469 11.2649 7.31469 10.1695C7.31469 9.47085 7.46476 8.62525 7.7649 7.62749C8.36518 6.43123 8.66532 5.73478 8.66532 5.53366C8.86454 6.33328 8.91407 6.87983 8.8154 7.17852C9.91503 7.77665 10.4662 8.47534 10.4662 9.27197ZM10.016 9.8701C9.61489 9.37029 9.01499 9.02151 8.21511 8.82338C7.81405 9.22076 7.61483 9.47011 7.61483 9.57104C7.61483 10.1692 7.96412 10.4682 8.66532 10.4682C9.16468 10.4682 9.61489 10.2671 10.016 9.8701ZM14.0678 34.543L13.0174 36.1871C12.4171 36.3856 11.7654 36.5359 11.0664 36.6361C9.96418 37.0335 9.41568 37.4821 9.41568 37.9823C9.91541 39.9752 10.166 41.3703 10.166 42.1688C10.166 43.9636 10.1146 45.0103 10.016 45.3086C10.016 44.2103 9.81411 42.7666 9.41568 40.9722C9.01499 39.177 8.8154 38.0305 8.8154 37.5329C8.8154 36.6361 9.1388 36.0376 9.79085 35.7385C10.4403 35.4387 11.0664 35.189 11.6667 34.9909C11.266 34.691 10.9164 34.5423 10.6162 34.5423L9.71582 35.2899V34.5423C10.016 34.1426 10.2643 33.7688 10.4662 33.4208C10.6654 33.0701 10.9164 32.8978 11.2165 32.8978C11.8168 32.8981 12.7664 33.4447 14.0678 34.543ZM15.2684 27.0664L14.0678 29.4581L11.5167 28.2626L12.4171 26.1692L10.166 24.9725L11.2165 22.5808L13.9178 23.777L12.8673 25.8701L15.2684 27.0664ZM28.0244 15.5523C27.4241 15.4514 26.0221 15.1038 23.8224 14.5052C22.0216 13.9075 20.6192 13.6084 19.6204 13.6084C17.3176 13.6084 16.1688 14.4544 16.1688 16.1505C16.1688 16.8466 16.4176 17.5452 16.9192 18.2439C17.318 18.6413 17.8196 18.8424 18.4199 18.8424C19.8197 18.8424 21.4213 18.4428 23.2221 17.6462C26.1226 16.349 27.7242 15.6503 28.0244 15.5523ZM29.375 26.9168C27.8743 30.7041 25.9725 32.5991 23.6723 32.5991C21.9702 32.5991 21.1211 31.8002 21.1211 30.2066C21.1211 28.9097 22.2208 27.5647 24.4227 26.1695C24.022 25.8701 23.6209 25.7206 23.2221 25.7206C22.7205 25.7206 22.2208 25.9684 21.7214 26.4682V25.8701C22.2208 24.7718 22.922 24.2252 23.8224 24.2252C25.3231 24.2252 26.5237 24.4237 27.4241 24.8241L25.6232 26.4679C24.922 26.6664 24.1458 27.1153 23.2972 27.8144C22.4459 28.5105 22.0216 29.1086 22.0216 29.6088C22.0216 30.506 22.8211 30.9546 24.4227 30.9546C25.5227 30.9546 26.6223 30.3565 27.7242 29.1606C28.2236 28.3606 28.7747 27.6129 29.375 26.9168ZM32.0763 6.58039C32.0763 7.77627 31.6752 8.37478 30.8757 8.37478C30.4746 8.37478 30.0736 8.17627 29.6751 7.77627C29.375 8.5759 28.9248 8.97254 28.3245 8.97254C27.6233 8.97254 27.274 8.52394 27.274 7.62674C27.274 7.02824 27.274 6.43048 27.274 5.83235C27.0722 6.03347 26.8238 6.33216 26.5237 6.72917V6.13104C26.7229 5.63347 27.2226 4.98599 28.0244 4.18711C27.7242 6.28057 27.9234 7.3273 28.6247 7.3273C29.124 7.3273 29.375 6.97889 29.375 6.2802C29.375 5.98113 29.2741 5.38338 29.0749 4.48581L29.5251 3.58973C29.8252 4.08954 30.0248 4.83721 30.1254 5.83272C30.1254 6.53141 30.3741 6.87945 30.8757 6.87945C31.1758 6.87945 31.3259 6.6316 31.3259 6.13179L30.8757 4.18786L31.476 3.14113C31.8748 4.43796 32.0763 5.58525 32.0763 6.58039ZM40.6303 32.3C40.5293 33.6944 40.03 34.3938 39.1296 34.3938C38.2291 34.3938 37.7789 33.9449 37.7789 33.0477C37.7789 31.7509 38.4779 30.2555 39.8799 28.5617C39.1787 30.1553 38.8294 31.3023 38.8294 32.0009C38.8294 32.6966 39.0778 33.0477 39.5798 33.0477C40.0791 33.0477 40.3793 32.7976 40.4802 32.3H40.6303ZM43.6317 23.6271C43.6317 25.7202 43.3807 27.3142 42.8813 28.4122H42.5812C42.6795 26.2181 42.5812 23.9262 42.281 21.534L39.5798 4.63683C39.4788 3.64132 39.2796 2.89366 38.9795 2.39384L39.7298 0.300011L42.281 5.23459V6.13179L41.0805 4.78562C40.9795 4.98674 40.9795 5.18525 41.0805 5.38412L43.4816 21.3841C43.5799 21.8817 43.6317 22.6294 43.6317 23.6271ZM50.3848 4.93553C50.3848 5.33478 50.2347 5.78412 49.9346 6.28132C49.6345 5.98225 49.3835 5.8331 49.1843 5.8331C48.6826 5.8331 48.2838 6.53179 47.9837 7.92655C47.7819 8.82375 47.6318 9.81926 47.5335 10.9172C47.2333 10.118 46.7317 9.07123 46.0328 7.77702C45.9319 8.27758 45.6317 8.52468 45.1324 8.52468C44.3302 8.52468 43.9318 8.07646 43.9318 7.17889C43.9318 6.08282 44.2815 5.53403 44.9823 5.53403C45.8827 5.53403 46.6822 6.58113 47.3834 8.67422C47.9837 5.08543 48.734 3.29104 49.6345 3.29104C50.1338 3.29067 50.3848 3.83982 50.3848 4.93553ZM50.5349 13.3094C50.1338 16.0006 48.584 17.8443 45.8827 18.8421L45.7326 18.6925C47.2333 17.7957 48.1338 16.8466 48.4339 15.8514C47.0319 15.9497 46.1829 16.1995 45.8827 16.5991C46.0819 15.4028 46.4312 14.5546 46.9332 14.057C47.1324 13.8563 48.333 13.6084 50.5349 13.3094ZM50.3848 22.5804L49.1843 24.9722L46.6331 23.7766L47.8336 21.3841L50.3848 22.5804ZM53.0861 38.5804C53.0861 39.9752 52.5841 40.6742 51.5854 40.6742C50.685 40.6742 50.2347 40.226 50.2347 39.328C50.2347 38.0312 50.9333 36.5359 52.3357 34.8421H52.4858C51.6837 36.4357 51.2852 37.583 51.2852 38.2813C51.2852 38.9774 51.534 39.328 52.0356 39.328C52.5353 39.328 52.8351 39.0783 52.936 38.5804H53.0861ZM55.7873 6.58039C55.7873 7.77627 55.5367 9.12244 55.037 10.6178C55.1357 9.81889 55.1871 8.92394 55.1871 7.92618C55.1871 6.13179 54.6359 4.73702 53.5363 3.73926L53.6864 1.94487C54.3853 2.34412 54.9106 3.04319 55.2621 4.03833C55.6114 5.03609 55.7873 5.88394 55.7873 6.58039ZM68.2432 18.3935C65.441 17.1972 62.1886 16.5991 58.4886 16.5991C56.6878 16.5991 55.4872 16.7976 54.8869 17.1972C54.8869 17.3957 55.5364 17.9684 56.8378 18.9172C58.1367 19.863 59.239 20.7864 60.1394 21.6832C62.2404 20.6854 64.9416 19.5897 68.2432 18.3935ZM71.5447 1.49627C71.5447 2.09478 71.3687 2.79347 71.0195 3.5901C70.6675 4.38898 70.2432 4.98674 69.7439 5.3845C70.3441 4.18824 70.6443 3.34263 70.6443 2.84244C65.5419 4.43833 60.8897 7.12992 56.6878 10.9172C56.7864 10.417 56.887 9.91945 56.9879 9.42188C58.6878 7.72805 60.9648 6.13216 63.8161 4.63683C66.6674 3.14113 69.2422 2.0944 71.5447 1.49627ZM67.7929 27.814C67.9922 28.611 67.793 29.0593 67.1927 29.1602C66.8925 29.2585 66.4423 29.0593 65.842 28.5617C65.441 29.2578 64.7915 30.2058 63.8911 31.4032C62.7889 32.6974 61.3399 33.497 59.5391 33.7953L58.1885 34.0944C59.5882 33.3957 61.1385 32.3983 62.8406 31.1037C64.2404 30.0054 65.19 28.9097 65.692 27.814C66.0908 27.0148 66.4423 26.5666 66.7425 26.4675C67.2418 26.368 67.5911 26.8163 67.7929 27.814ZM68.9935 10.0196C68.9935 11.2159 68.5924 11.8144 67.7929 11.8144C67.3919 11.8144 66.9912 11.5643 66.5924 11.0667C66.2923 11.8634 65.842 12.2626 65.2418 12.2626C64.6415 12.2626 64.2896 11.8637 64.1913 11.0667C64.1913 10.368 64.1913 9.72057 64.1913 9.12282C63.9898 9.42188 63.7906 9.72095 63.591 10.0196V9.57104C63.6893 9.07123 64.1395 8.42599 64.9416 7.62711C64.6415 9.62039 64.8407 10.6178 65.5419 10.6178C66.0416 10.6178 66.2923 10.3187 66.2923 9.72057C66.2923 9.42151 66.1913 8.77478 65.9921 7.77665L66.5924 7.02898C66.7916 7.42861 66.9417 8.1273 67.0426 9.12282C67.0426 9.81926 67.2913 10.1695 67.7929 10.1695C68.0931 10.1695 68.2432 9.96842 68.2432 9.57141C68.2432 9.47048 68.0931 8.82375 67.7929 7.62749L68.3932 6.43123C68.792 7.72767 68.9935 8.92394 68.9935 10.0196ZM67.4928 28.2626C67.0918 27.6641 66.6415 27.515 66.1422 27.814C66.7425 28.211 67.1927 28.3606 67.4928 28.2626ZM81.1492 34.3935C81.1492 35.3886 80.8491 35.8888 80.2488 35.8888C79.8477 35.8888 79.3975 35.7396 78.8981 35.4398C77.1956 38.5295 74.0441 40.0249 69.4437 39.9258H69.2936V39.7766C73.7958 38.6783 76.8463 37.134 78.4479 35.1415C77.9463 34.9404 77.6976 34.6413 77.6976 34.2447C77.6976 33.9449 77.8476 33.595 78.1478 33.1972C78.4479 32.7983 78.6963 32.5991 78.8981 32.5991L78.7481 32.0009L78.8981 31.8514C79.0974 31.8514 79.4466 32.0499 79.9486 32.4495V32.5991C80.7481 33.4963 81.1492 34.0944 81.1492 34.3935ZM82.8 23.6271C82.8 25.7202 82.5493 27.3142 82.0496 28.4122H81.7495C81.8478 26.2181 81.6977 23.9262 81.2993 21.534L78.7481 4.63683C78.5462 3.64132 78.347 2.89366 78.1478 2.39384L78.8981 0.300011L81.4493 5.23459V6.13179L80.2488 4.78562C80.1479 4.98674 80.0987 5.18525 80.0987 5.38412L82.6499 21.3841C82.7486 21.8817 82.8 22.6294 82.8 23.6271ZM79.4984 33.6458C79.4984 33.4447 79.3975 33.3464 79.1983 33.3464C78.7976 33.3464 78.4971 33.4959 78.2979 33.795C78.4971 34.094 78.7976 34.2925 79.1983 34.3935C79.1983 34.2925 79.2474 34.1688 79.3484 34.0196C79.4466 33.8701 79.4984 33.7438 79.4984 33.6458ZM214.111 28.1131C214.111 29.5079 213.785 30.6555 213.135 31.5523C212.484 32.4488 211.759 32.8981 210.959 32.8981C209.459 32.8981 208.408 31.9494 207.808 30.0566C207.408 31.9494 206.556 32.8981 205.257 32.8981C204.056 32.8981 203.255 32.0985 202.856 30.506C202.054 32.3987 200.655 33.3471 198.654 33.3471C197.953 33.3471 197.379 33.0716 196.928 32.5251C196.478 31.9759 196.253 31.3516 196.253 30.6559C196.253 30.3565 196.253 30.1067 196.253 29.9082C182.146 34.2933 167.739 36.488 153.032 36.488C145.927 36.488 138.975 35.8895 132.173 34.6929C125.668 33.6955 120.816 32.3497 117.616 30.6559C117.616 32.0503 117.564 33.4454 117.466 34.8424H117.166C115.965 34.0436 115.215 33.0974 114.915 32.0013C114.814 31.2017 114.739 30.454 114.69 29.7583C114.638 29.0596 114.014 28.7109 112.814 28.7109C111.712 28.7109 109.836 30.3052 107.186 33.4966C104.534 36.6854 102.508 38.2817 101.109 38.2817C100.306 38.2817 99.6078 37.9079 99.0075 37.1602C98.4073 36.4125 98.1071 35.3894 98.1071 34.0948C98.1071 33.3961 98.2572 32.5482 98.5573 31.5527C98.0557 31.7512 97.5564 31.8518 97.0566 31.8518C95.0543 31.8518 93.7551 30.506 93.1548 27.8144C92.953 31.1041 91.4523 32.749 88.6527 32.749C87.4521 32.749 86.5517 32.0993 85.9514 30.8051C85.5508 29.8073 85.4003 28.6604 85.5012 27.3658C85.5012 27.1651 85.5995 26.4686 85.8014 25.2723C85.9 24.2746 85.9514 23.3774 85.9514 22.5808C85.2502 23.5763 84.7509 24.8731 84.4507 26.4679C84.2493 27.5643 84.05 28.6596 83.8505 29.7583C83.4494 31.5527 82.8 32.4492 81.8995 32.4492C81.1983 32.4492 80.5981 31.875 80.0987 30.7295C79.5967 29.5826 79.3484 28.3602 79.3484 27.066C79.3484 25.669 79.4466 24.1247 79.6485 22.4305L79.9486 22.58C79.8477 23.3766 79.7986 24.1737 79.7986 24.9718C79.7986 28.3598 80.4975 30.0566 81.8995 30.0566C82.3989 30.0566 82.8491 29.309 83.2502 27.8137C83.9488 25.3206 84.3498 23.8742 84.4507 23.4768C85.1497 21.7811 86.0501 20.6357 87.152 20.038V21.9815C86.7509 24.5729 86.5517 26.1688 86.5517 26.7669C86.5517 28.958 87.3512 30.0566 88.9528 30.0566C89.9519 30.0566 90.8287 29.657 91.5791 28.8604C92.3294 28.0615 92.7046 27.1153 92.7046 26.0193L91.6541 20.1879L92.4044 18.0944C92.9038 19.0899 93.2039 19.8888 93.3049 20.4866C93.605 22.1804 93.8534 23.9258 94.0552 25.7202C94.6555 28.211 95.7551 29.4585 97.3568 29.4585C98.3555 29.4585 99.0567 29.0596 99.4577 28.263C98.9561 27.1647 98.4568 26.069 97.957 24.9725C97.2558 23.1785 96.8548 21.7815 96.7565 20.7864L96.3063 19.7393L96.9066 17.6458L99.0075 20.9355V21.6832C98.7074 21.4821 98.4073 21.2346 98.1071 20.9355C98.0062 21.134 98.0062 21.2346 98.1071 21.2346C99.5069 24.4237 100.208 26.6178 100.208 27.8144C100.208 29.6088 99.8074 30.8051 99.0075 31.4036C98.7074 32.3987 98.5573 33.1464 98.5573 33.6466C98.5573 35.0409 99.2563 35.7404 100.658 35.7404C101.957 35.7404 103.908 34.1187 106.511 30.8806C109.111 27.6398 111.163 26.0208 112.664 26.0208C113.163 26.0208 113.864 26.3198 114.765 26.9176L115.515 25.1228C116.915 27.1157 121.068 28.9587 127.971 30.6552C135.873 32.4492 144.929 33.3464 155.134 33.3464C162.036 33.3464 169.639 32.7482 177.944 31.552C185.148 30.4537 191.65 29.1079 197.454 27.5146C197.252 27.8137 197.153 28.1609 197.153 28.5613C197.153 29.1598 197.353 29.7064 197.754 30.2054C198.152 30.7034 198.603 30.9531 199.105 30.9531C200.103 30.9531 201.154 30.4533 202.256 29.4578L204.207 27.515L204.357 27.6645C204.357 27.863 204.357 28.0619 204.357 28.263C204.357 29.657 204.856 30.3565 205.857 30.3565C206.357 30.3565 206.908 29.9082 207.507 29.0107C208.206 27.8144 208.708 27.1161 209.008 26.9168H209.158C209.158 27.1153 209.158 27.3142 209.158 27.5153C209.158 28.312 209.432 29.0342 209.984 29.6836C210.533 30.3303 211.058 30.6555 211.559 30.6555C212.558 30.6555 213.06 30.2563 213.06 29.4589C213.06 28.5624 212.31 26.768 210.809 24.0765C209.207 21.1841 208.356 19.4409 208.258 18.8428C208.157 18.6417 208.007 18.368 207.808 18.0204C207.606 17.6697 207.507 17.4454 207.507 17.3475L207.958 15.1045L210.959 18.2443V18.8421L209.608 18.2436V18.543C210.408 19.7389 211.207 20.9352 212.009 22.1318C213.41 24.6223 214.111 26.6178 214.111 28.1131ZM80.699 34.8421C80.4975 34.6413 80.1974 34.2929 79.7986 33.7953L79.4984 34.543C79.7986 34.7415 80.0987 34.8421 80.3988 34.8421C80.4975 34.8421 80.5981 34.8421 80.699 34.8421ZM98.5573 0.000946045C98.5573 0.500759 98.3555 1.14824 97.957 1.94487C97.5564 2.74375 97.1553 3.39123 96.7565 3.8888C97.3568 2.69253 97.6569 1.79496 97.6569 1.19721C91.4523 3.19235 86.1998 6.13179 81.8995 10.0196C81.8995 9.51982 81.9982 8.97291 82.1997 8.37515C83.8996 6.78188 86.5003 5.08543 90.0033 3.29067C93.3049 1.59683 96.1562 0.500759 98.5573 0.000946045ZM92.2544 34.9916C92.2544 35.4892 92.0525 35.9867 91.6541 36.4869C91.4523 36.1871 91.2039 36.0383 90.9037 36.0383C90.4021 36.0383 90.0033 36.6851 89.7032 37.9823C89.6023 38.9774 89.4526 39.9752 89.253 40.9729C89.0511 40.2742 88.5518 39.2275 87.7523 37.8327C87.6514 38.4309 87.4004 38.7299 87.0019 38.7299C86.1015 38.7299 85.6513 38.2297 85.6513 37.2346C85.6513 36.2368 86.0501 35.7393 86.8519 35.7393C87.6514 35.7393 88.4509 36.786 89.253 38.8791C89.7523 35.2899 90.5027 33.4963 91.504 33.4963C92.0034 33.4963 92.2544 33.9938 92.2544 34.9916ZM92.5545 12.8608C92.5545 14.057 92.1043 14.6552 91.2039 14.6552C90.9037 14.6552 90.5027 14.4051 90.0033 13.9075C89.8015 14.7041 89.3513 15.1038 88.6527 15.1038C88.0524 15.1038 87.7005 14.7041 87.6022 13.9075C87.6022 13.2088 87.6022 12.5617 87.6022 11.9636C87.4004 12.2626 87.2011 12.5621 87.0019 12.8608V12.2626C87.2011 11.8637 87.6514 11.2652 88.3526 10.4682C88.1507 12.4611 88.3526 13.4589 88.9528 13.4589C89.4526 13.4589 89.7032 13.1082 89.7032 12.4122C89.7032 12.211 89.6023 11.6129 89.403 10.6178L90.0033 9.8701C90.3035 10.2675 90.4535 10.9658 90.4535 11.9636C90.5522 12.6596 90.8523 13.0103 91.354 13.0103C91.6541 13.0103 91.8042 12.8099 91.8042 12.4122C91.8042 12.3116 91.6541 11.6645 91.354 10.4682L91.8042 9.27197C92.3035 10.5666 92.5545 11.7624 92.5545 12.8608ZM96.3063 11.2159C96.3063 12.4122 96.0557 13.758 95.5559 15.2533C95.6546 14.4544 95.706 13.5576 95.706 12.5621C95.706 10.7673 95.1549 9.37029 94.0552 8.37515L94.2053 6.43123C94.8056 6.93104 95.3053 7.6787 95.706 8.67422C96.1044 9.66898 96.3063 10.5172 96.3063 11.2159ZM104.41 23.6271C104.41 25.7202 104.208 27.3142 103.81 28.4122H103.51C103.608 26.2181 103.458 23.9262 103.059 21.534L100.508 4.63683C100.306 3.64132 100.107 2.89366 99.908 2.39384L100.658 0.300011L103.209 5.23459V6.13179L102.009 4.78562C101.908 4.98674 101.859 5.18525 101.859 5.38412L104.41 21.3841C104.41 21.8817 104.41 22.6294 104.41 23.6271ZM114.015 33.9445C114.114 34.8417 113.914 35.3396 113.414 35.4398C113.114 35.4398 112.612 35.2394 111.914 34.8417C111.513 35.5381 110.912 36.4353 110.113 37.5333C108.912 38.8275 107.411 39.6753 105.611 40.0753L104.41 40.2249C105.709 39.6264 107.21 38.6776 108.912 37.3834C110.413 36.1867 111.412 35.0395 111.914 33.9437C112.312 33.1449 112.612 32.6963 112.814 32.598C113.313 32.5991 113.714 33.0477 114.015 33.9445ZM113.114 7.17852C113.114 7.57777 112.964 8.02711 112.664 8.52431C112.364 8.22524 112.113 8.07609 111.914 8.07609C111.412 8.07609 111.014 8.72506 110.713 10.0196C110.512 11.1161 110.361 12.1135 110.263 13.0103C110.062 12.312 109.562 11.3146 108.762 10.0196C108.661 10.5176 108.362 10.7673 107.862 10.7673C107.06 10.7673 106.662 10.3191 106.662 9.42151C106.662 8.32543 107.011 7.77665 107.712 7.77665C108.613 7.77665 109.412 8.82375 110.113 10.9168C110.714 7.32805 111.464 5.53366 112.365 5.53366C112.863 5.53366 113.114 6.08282 113.114 7.17852ZM113.564 15.4028L112.513 17.0477C111.913 17.2458 111.262 17.4451 110.563 17.6458C109.46 17.9449 108.912 18.3935 108.912 18.9916C109.412 20.8843 109.663 22.2301 109.663 23.0294C109.663 24.8238 109.611 25.8705 109.513 26.1692C109.513 25.0709 109.311 23.6507 108.912 21.9079C108.512 20.1624 108.312 19.0409 108.312 18.5434C108.312 17.5456 108.635 16.8985 109.287 16.5995C109.937 16.3004 110.563 16.0503 111.163 15.8518C110.661 15.6507 110.263 15.5527 109.963 15.5527C110.062 15.5527 109.761 15.7509 109.063 16.1509L109.212 15.4032C109.412 15.1041 109.637 14.7303 109.888 14.2817C110.136 13.8331 110.413 13.6088 110.713 13.6088C111.313 13.6084 112.263 14.2066 113.564 15.4028ZM113.714 34.3935C113.314 33.795 112.863 33.6458 112.364 33.9445C112.863 34.3419 113.313 34.4914 113.714 34.3935ZM116.866 30.3561C116.566 30.1553 116.116 29.7067 115.514 29.0103C115.514 29.5079 115.639 30.0798 115.89 30.7299C116.138 31.377 116.415 31.7019 116.715 31.7019C116.814 31.7015 116.866 31.2533 116.866 30.3561ZM194.002 36.6365C193.5 36.6365 193.151 36.337 192.951 35.7396C192.25 36.6365 191.601 37.0854 191.001 37.0854C190.799 37.0854 190.476 36.9359 190.025 36.6372C189.575 36.3374 189.298 36.1879 189.2 36.1879C188.698 36.1879 187.748 36.4877 186.348 37.0851C184.547 37.8817 183.096 38.4798 181.996 38.8798C179.794 39.5755 177.393 39.9262 174.792 39.9262L174.643 39.6271C176.842 39.6271 179.044 39.1781 181.246 38.2809C182.447 37.8813 184.146 37.0847 186.349 35.8888C187.948 34.992 189.1 34.5426 189.8 34.5426C189.999 34.5426 190.3 34.7411 190.7 35.1411C191.099 35.5385 191.451 35.7396 191.751 35.7396C192.15 35.7396 192.6 35.2394 193.102 34.2443L193.552 33.9445C193.451 34.7419 193.702 35.1411 194.302 35.1411C194.603 35.1411 194.903 34.6409 195.202 33.6458L195.503 33.4966C195.503 35.5897 195.001 36.6365 194.002 36.6365ZM205.857 9.42151C205.857 9.81889 205.656 10.3187 205.256 10.9168C204.956 10.5172 204.705 10.3187 204.506 10.3187C204.004 10.3187 203.606 11.0144 203.306 12.4122C203.205 13.3094 203.055 14.2555 202.856 15.2533C202.555 14.555 202.054 13.5576 201.355 12.2626C201.254 12.7606 200.954 13.0103 200.455 13.0103C199.653 13.0103 199.254 12.5621 199.254 11.6645C199.254 10.5662 199.604 10.0196 200.305 10.0196C201.205 10.0196 202.005 11.0667 202.706 13.1598C203.306 9.57104 204.057 7.77665 204.957 7.77665C205.557 7.77665 205.857 8.32581 205.857 9.42151ZM204.657 20.9355C204.657 22.7299 204.106 23.6271 203.006 23.6271C202.005 23.6271 201.505 23.078 201.505 21.9823C201.505 21.2839 201.705 20.4357 202.106 19.4402C202.707 18.2439 203.006 17.5456 203.006 17.3467C203.205 18.1434 203.255 18.6925 203.156 18.9912C204.155 19.5897 204.657 20.2368 204.657 20.9355ZM204.207 21.6832C203.806 21.1834 203.205 20.7864 202.406 20.4869C202.106 20.9849 201.956 21.2839 201.956 21.3841C201.956 21.8817 202.305 22.1318 203.006 22.1318C203.505 22.1318 203.907 21.9823 204.207 21.6832ZM211.71 35.8888L210.66 38.2809L208.109 36.9344L209.159 34.5426L211.71 35.8888Z" fill="white"/>
</g>
<defs>
<clipPath id="clip0_1482_1383">
<rect width="214" height="48" fill="white" transform="translate(0.111328 0.000946045)"/>
</clipPath>
</defs>
</svg>
