<?xml version="1.0" encoding="UTF-8"?>
<!DOCTYPE svg PUBLIC "-//W3C//DTD SVG 1.1//EN" "http://www.w3.org/Graphics/SVG/1.1/DTD/svg11.dtd">
<svg xmlns="http://www.w3.org/2000/svg" version="1.1" width="512px" height="512px" style="shape-rendering:geometricPrecision; text-rendering:geometricPrecision; image-rendering:optimizeQuality; fill-rule:evenodd; clip-rule:evenodd" xmlns:xlink="http://www.w3.org/1999/xlink">
<g><path style="opacity:1" fill="#b49261" d="M 173.5,9.5 C 178.25,17.0989 178.75,25.0989 175,33.5C 168.962,40.5685 161.462,42.9018 152.5,40.5C 151.094,40.0269 150.427,39.0269 150.5,37.5C 146.942,31.3578 146.609,25.0244 149.5,18.5C 155.224,9.72596 163.224,6.72596 173.5,9.5 Z"/></g>
<g><path style="opacity:1" fill="#b59261" d="M 130.5,12.5 C 138.326,23.8804 136.659,33.7137 125.5,42C 121.023,44.5214 116.356,45.0214 111.5,43.5C 106.067,39.2662 104.067,33.5995 105.5,26.5C 107.846,16.8899 114.012,11.5566 124,10.5C 126.277,11.1172 128.444,11.7839 130.5,12.5 Z"/></g>
<g><path style="opacity:0.962" fill="#a47d48" d="M 173.5,9.5 C 178.125,11.1283 181.459,14.1283 183.5,18.5C 186.351,25.321 186.018,31.9877 182.5,38.5C 178.766,44.0411 173.433,47.0411 166.5,47.5C 160.761,47.0479 156.095,44.7146 152.5,40.5C 161.462,42.9018 168.962,40.5685 175,33.5C 178.75,25.0989 178.25,17.0989 173.5,9.5 Z"/></g>
<g><path style="opacity:1" fill="#b59261" d="M 217.5,13.5 C 216.957,13.56 216.624,13.8933 216.5,14.5C 221.617,24.6195 219.95,33.4528 211.5,41C 206.068,43.2047 200.402,44.038 194.5,43.5C 192.937,42.0552 191.604,40.3885 190.5,38.5C 188.73,31.8678 189.396,25.5344 192.5,19.5C 196.302,13.9285 201.636,10.9285 208.5,10.5C 211.732,11.1332 214.732,12.1332 217.5,13.5 Z"/></g>
<g><path style="opacity:0.965" fill="#a47c48" d="M 130.5,12.5 C 134.049,13.7232 137.049,15.7232 139.5,18.5C 142.626,24.8773 143.292,31.5439 141.5,38.5C 133.813,50.3292 123.813,52.6625 111.5,45.5C 111.5,44.8333 111.5,44.1667 111.5,43.5C 116.356,45.0214 121.023,44.5214 125.5,42C 136.659,33.7137 138.326,23.8804 130.5,12.5 Z"/></g>
<g><path style="opacity:0.952" fill="#a47c48" d="M 217.5,13.5 C 221.895,15.5622 224.895,18.8955 226.5,23.5C 227.412,27.1306 227.579,30.7973 227,34.5C 225.487,37.5266 223.987,40.5266 222.5,43.5C 216.228,49.5059 208.895,51.0059 200.5,48C 197.894,47.2082 195.894,45.7082 194.5,43.5C 200.402,44.038 206.068,43.2047 211.5,41C 219.95,33.4528 221.617,24.6195 216.5,14.5C 216.624,13.8933 216.957,13.56 217.5,13.5 Z"/></g>
<g><path style="opacity:1" fill="#d8c49a" d="M 156.5,14.5 C 166.253,12.9233 170.753,16.9233 170,26.5C 167.367,31.7315 163.201,33.5649 157.5,32C 149.866,26.6659 149.533,20.8325 156.5,14.5 Z"/></g>
<g><path style="opacity:1" fill="#d8c49a" d="M 116.5,16.5 C 125.015,16.8439 128.515,21.1772 127,29.5C 121.833,37.0791 116.167,37.4124 110,30.5C 107.746,23.5755 109.913,18.9089 116.5,16.5 Z"/></g>
<g><path style="opacity:1" fill="#d8c49a" d="M 199.5,16.5 C 208.97,16.4737 212.803,21.1404 211,30.5C 204.794,37.49 199.127,37.1567 194,29.5C 192.571,23.7001 194.404,19.3668 199.5,16.5 Z"/></g>
<g><path style="opacity:0.921" fill="#5d5850" d="M 139.5,18.5 C 142.833,18.5 146.167,18.5 149.5,18.5C 146.609,25.0244 146.942,31.3578 150.5,37.5C 147.57,38.299 144.57,38.6323 141.5,38.5C 143.292,31.5439 142.626,24.8773 139.5,18.5 Z"/></g>
<g><path style="opacity:0.926" fill="#5c5750" d="M 183.5,18.5 C 186.57,18.3677 189.57,18.701 192.5,19.5C 189.396,25.5344 188.73,31.8678 190.5,38.5C 187.833,38.5 185.167,38.5 182.5,38.5C 186.018,31.9877 186.351,25.321 183.5,18.5 Z"/></g>
<g><path style="opacity:1" fill="#b59261" d="M 255.5,21.5 C 263.217,34.9852 260.217,45.1519 246.5,52C 242.514,52.4988 238.514,52.6655 234.5,52.5C 232.109,50.3852 230.776,47.7186 230.5,44.5C 229.42,41.2569 229.253,37.9236 230,34.5C 230.999,31.1675 232.499,28.1675 234.5,25.5C 240.811,19.8321 247.811,18.4987 255.5,21.5 Z"/></g>
<g><path style="opacity:0.963" fill="#a47c48" d="M 255.5,21.5 C 261.199,23.8652 265.199,27.8652 267.5,33.5C 268.506,41.1441 266.506,47.8107 261.5,53.5C 252.249,60.3248 243.249,59.9914 234.5,52.5C 238.514,52.6655 242.514,52.4988 246.5,52C 260.217,45.1519 263.217,34.9852 255.5,21.5 Z"/></g>
<g><path style="opacity:0.903" fill="#5c5750" d="M 226.5,23.5 C 229.267,23.8583 231.933,24.525 234.5,25.5C 232.499,28.1675 230.999,31.1675 230,34.5C 229.253,37.9236 229.42,41.2569 230.5,44.5C 227.833,44.1667 225.167,43.8333 222.5,43.5C 223.987,40.5266 225.487,37.5266 227,34.5C 227.579,30.7973 227.412,27.1306 226.5,23.5 Z"/></g>
<g><path style="opacity:1" fill="#d8c49a" d="M 239.5,25.5 C 249.781,25.1087 253.614,29.7753 251,39.5C 247.692,43.3271 243.526,44.4937 238.5,43C 231.693,36.8026 232.026,30.9692 239.5,25.5 Z"/></g>
<g><path style="opacity:0.89" fill="#5e5950" d="M 105.5,26.5 C 104.067,33.5995 106.067,39.2662 111.5,43.5C 111.5,44.1667 111.5,44.8333 111.5,45.5C 109.079,45.8782 106.746,46.5448 104.5,47.5C 103.924,43.7682 102.757,40.1016 101,36.5C 98.6278,34.2968 96.4611,31.9635 94.5,29.5C 98.1101,28.2967 101.777,27.2967 105.5,26.5 Z"/></g>
<g><path style="opacity:1" fill="#b59261" d="M 91.5,28.5 C 98.8541,38.8384 97.8541,48.3384 88.5,57C 83.2158,60.4943 77.5492,61.3276 71.5,59.5C 68.1643,56.1547 66.1643,52.1547 65.5,47.5C 67.4782,31.8553 76.1449,25.5219 91.5,28.5 Z"/></g>
<g><path style="opacity:0.933" fill="#a47d48" d="M 91.5,28.5 C 92.609,28.5569 93.609,28.8902 94.5,29.5C 96.4611,31.9635 98.6278,34.2968 101,36.5C 102.757,40.1016 103.924,43.7682 104.5,47.5C 103.123,59.0431 96.6231,65.3765 85,66.5C 82.2219,65.6747 79.3886,65.008 76.5,64.5C 75.027,62.6053 73.3603,60.9387 71.5,59.5C 77.5492,61.3276 83.2158,60.4943 88.5,57C 97.8541,48.3384 98.8541,38.8384 91.5,28.5 Z"/></g>
<g><path style="opacity:1" fill="#d9c49a" d="M 75.5,33.5 C 85.1583,31.9934 89.325,35.9934 88,45.5C 85.5493,51.0891 81.3826,52.9224 75.5,51C 70.8468,48.0579 69.3468,43.8912 71,38.5C 72.025,36.313 73.525,34.6464 75.5,33.5 Z"/></g>
<g><path style="opacity:0.904" fill="#5c5750" d="M 267.5,33.5 C 270.421,34.696 273.421,35.696 276.5,36.5C 271.214,41.6853 268.881,48.0187 269.5,55.5C 266.833,54.8333 264.167,54.1667 261.5,53.5C 266.506,47.8107 268.506,41.1441 267.5,33.5 Z"/></g>
<g><path style="opacity:1" fill="#b49161" d="M 295.5,33.5 C 302.859,43.8042 301.859,53.3042 292.5,62C 286.876,65.5291 280.876,66.3624 274.5,64.5C 272.074,61.9875 270.408,58.9875 269.5,55.5C 268.881,48.0187 271.214,41.6853 276.5,36.5C 282.306,32.5496 288.639,31.5496 295.5,33.5 Z"/></g>
<g><path style="opacity:0.923" fill="#a47c48" d="M 295.5,33.5 C 302.959,36.2862 306.959,41.6196 307.5,49.5C 307.8,57.2174 305.133,63.5507 299.5,68.5C 290.239,72.8471 281.905,71.5138 274.5,64.5C 280.876,66.3624 286.876,65.5291 292.5,62C 301.859,53.3042 302.859,43.8042 295.5,33.5 Z"/></g>
<g><path style="opacity:1" fill="#d8c49a" d="M 278.5,38.5 C 284.21,37.2746 288.71,38.9413 292,43.5C 293.665,51.1563 290.665,55.4896 283,56.5C 276.992,55.9902 273.826,52.6568 273.5,46.5C 274.366,43.3075 276.032,40.6408 278.5,38.5 Z"/></g>
<g><path style="opacity:0.896" fill="#5d5850" d="M 65.5,47.5 C 66.1643,52.1547 68.1643,56.1547 71.5,59.5C 73.3603,60.9387 75.027,62.6053 76.5,64.5C 74.6675,65.2485 73.0009,66.2485 71.5,67.5C 69.1003,61.709 65.1003,57.3757 59.5,54.5C 58.8333,54.5 58.5,54.1667 58.5,53.5C 60.2193,50.7805 62.5526,48.7805 65.5,47.5 Z"/></g>
<g><path style="opacity:0.916" fill="#5d5850" d="M 307.5,49.5 C 310.382,51.1079 313.382,52.4413 316.5,53.5C 310.844,58.1459 307.844,64.1459 307.5,71.5C 304.833,70.5 302.167,69.5 299.5,68.5C 305.133,63.5507 307.8,57.2174 307.5,49.5 Z"/></g>
<g><path style="opacity:1" fill="#b59261" d="M 333.5,52.5 C 341.278,66.6615 337.945,77.1615 323.5,84C 319.779,84.6781 316.112,84.5114 312.5,83.5C 309.21,80.2441 307.543,76.2441 307.5,71.5C 307.844,64.1459 310.844,58.1459 316.5,53.5C 322.097,51.4144 327.764,51.081 333.5,52.5 Z"/></g>
<g><path style="opacity:1" fill="#b59261" d="M 58.5,53.5 C 58.5,54.1667 58.8333,54.5 59.5,54.5C 64.93,62.898 64.7633,71.2313 59,79.5C 53.1548,85.1693 46.3215,86.8359 38.5,84.5C 37.1667,82.8333 35.8333,81.1667 34.5,79.5C 30.9532,60.3754 38.9532,51.7088 58.5,53.5 Z"/></g>
<g><path style="opacity:0.929" fill="#a47d48" d="M 333.5,52.5 C 341.485,55.7931 345.485,61.7931 345.5,70.5C 345.242,74.4402 344.076,78.1069 342,81.5C 339.578,83.7496 337.411,86.0829 335.5,88.5C 330.537,89.4964 325.537,89.6631 320.5,89C 317.244,87.884 314.578,86.0507 312.5,83.5C 316.112,84.5114 319.779,84.6781 323.5,84C 337.945,77.1615 341.278,66.6615 333.5,52.5 Z"/></g>
<g><path style="opacity:0.937" fill="#a47c48" d="M 59.5,54.5 C 65.1003,57.3757 69.1003,61.709 71.5,67.5C 72.2842,82.3792 65.2842,90.3792 50.5,91.5C 45.9193,90.2081 41.9193,87.8747 38.5,84.5C 46.3215,86.8359 53.1548,85.1693 59,79.5C 64.7633,71.2313 64.93,62.898 59.5,54.5 Z"/></g>
<g><path style="opacity:1" fill="#d8c399" d="M 318.5,56.5 C 326.815,56.9765 330.648,61.3099 330,69.5C 327.267,74.5621 323.1,76.3954 317.5,75C 312.268,72.3674 310.435,68.2008 312,62.5C 313.494,59.6865 315.66,57.6865 318.5,56.5 Z"/></g>
<g><path style="opacity:1" fill="#d9c49a" d="M 42.5,58.5 C 52.6591,57.1581 56.8257,61.4914 55,71.5C 52.1034,76.1549 47.9367,77.6549 42.5,76C 35.8747,70.1683 35.8747,64.3349 42.5,58.5 Z"/></g>
<g><path style="opacity:0.891" fill="#5d5850" d="M 345.5,70.5 C 348.661,71.9131 351.661,73.5797 354.5,75.5C 348.29,79.916 344.623,85.916 343.5,93.5C 341.17,91.3328 338.503,89.6662 335.5,88.5C 337.411,86.0829 339.578,83.7496 342,81.5C 344.076,78.1069 345.242,74.4402 345.5,70.5 Z"/></g>
<g><path style="opacity:1" fill="#b59261" d="M 369.5,75.5 C 376.597,85.1482 375.93,94.3149 367.5,103C 361.929,106.136 355.929,107.302 349.5,106.5C 345.645,103.118 343.645,98.7843 343.5,93.5C 344.623,85.916 348.29,79.916 354.5,75.5C 359.663,73.1739 364.663,73.1739 369.5,75.5 Z"/></g>
<g><path style="opacity:0.95" fill="#a57c48" d="M 369.5,75.5 C 379.016,79.0643 383.35,86.0643 382.5,96.5C 379.894,103.439 375.228,108.439 368.5,111.5C 361.098,113.697 354.765,112.03 349.5,106.5C 355.929,107.302 361.929,106.136 367.5,103C 375.93,94.3149 376.597,85.1482 369.5,75.5 Z"/></g>
<g><path style="opacity:0.9" fill="#5e5850" d="M 34.5,79.5 C 35.8333,81.1667 37.1667,82.8333 38.5,84.5C 41.9193,87.8747 45.9193,90.2081 50.5,91.5C 48.684,93.1184 47.3507,95.1184 46.5,97.5C 43.9759,93.8944 40.6426,91.2277 36.5,89.5C 33.7196,88.9216 31.0529,88.2549 28.5,87.5C 30.1153,84.5505 32.1153,81.8838 34.5,79.5 Z"/></g>
<g><path style="opacity:1" fill="#d8c49a" d="M 353.5,79.5 C 363.06,78.8894 367.226,83.2228 366,92.5C 360.333,100.5 354.667,100.5 349,92.5C 347.381,86.9676 348.881,82.6343 353.5,79.5 Z"/></g>
<g><path style="opacity:1" fill="#b59261" d="M 28.5,87.5 C 31.0529,88.2549 33.7196,88.9216 36.5,89.5C 41.2421,96.7601 41.7421,104.427 38,112.5C 32.7874,119.184 25.9541,121.851 17.5,120.5C 16.391,120.443 15.391,120.11 14.5,119.5C 8.23961,108.939 9.57294,99.4386 18.5,91C 21.6319,89.2182 24.9653,88.0516 28.5,87.5 Z"/></g>
<g><path style="opacity:0.979" fill="#a57d48" d="M 36.5,89.5 C 40.6426,91.2277 43.9759,93.8944 46.5,97.5C 50.5523,106.359 49.219,114.525 42.5,122C 39.5162,124.326 36.1829,125.826 32.5,126.5C 29.6946,125.681 26.6946,125.181 23.5,125C 20.8936,124.208 18.8936,122.708 17.5,120.5C 25.9541,121.851 32.7874,119.184 38,112.5C 41.7421,104.427 41.2421,96.7601 36.5,89.5 Z"/></g>
<g><path style="opacity:1" fill="#d8c49a" d="M 20.5,93.5 C 30.8592,93.0139 34.6925,97.6806 32,107.5C 26.6667,112.833 21.3333,112.833 16,107.5C 13.2267,101.395 14.7267,96.7279 20.5,93.5 Z"/></g>
<g><path style="opacity:0.895" fill="#5d5850" d="M 382.5,96.5 C 384.194,98.8606 386.194,100.861 388.5,102.5C 381.672,105.329 377.339,110.329 375.5,117.5C 372.553,116.219 370.219,114.219 368.5,111.5C 375.228,108.439 379.894,103.439 382.5,96.5 Z"/></g>
<g><path style="opacity:1" fill="#b59261" d="M 401.5,102.5 C 407.555,112.723 406.555,122.223 398.5,131C 392.84,134.425 386.84,135.258 380.5,133.5C 378.016,131.88 376.516,129.547 376,126.5C 375.502,123.518 375.335,120.518 375.5,117.5C 377.339,110.329 381.672,105.329 388.5,102.5C 392.818,101.246 397.152,101.246 401.5,102.5 Z"/></g>
<g><path style="opacity:0.922" fill="#a47d48" d="M 401.5,102.5 C 411.289,107.41 415.289,115.41 413.5,126.5C 411.521,129.099 409.521,131.765 407.5,134.5C 404.358,137.06 401.025,139.06 397.5,140.5C 390.538,141.024 384.871,138.691 380.5,133.5C 386.84,135.258 392.84,134.425 398.5,131C 406.555,122.223 407.555,112.723 401.5,102.5 Z"/></g>
<g><path style="opacity:1" fill="#d8c49a" d="M 384.5,107.5 C 393.998,106.173 398.498,110.173 398,119.5C 392.413,127.031 386.413,127.365 380,120.5C 379.333,117.833 379.333,115.167 380,112.5C 381.707,110.963 383.207,109.296 384.5,107.5 Z"/></g>
<g><path style="opacity:0.887" fill="#5f5950" d="M 14.5,119.5 C 15.391,120.11 16.391,120.443 17.5,120.5C 18.8936,122.708 20.8936,124.208 23.5,125C 26.6946,125.181 29.6946,125.681 32.5,126.5C 32.3713,128.216 32.038,129.883 31.5,131.5C 29.5168,130.529 27.5168,129.529 25.5,128.5C 20.9296,127.559 16.263,127.226 11.5,127.5C 12.2051,124.646 13.2051,121.979 14.5,119.5 Z"/></g>
<g><path style="opacity:0.89" fill="#5d5850" d="M 413.5,126.5 C 415.5,128.833 417.5,131.167 419.5,133.5C 411.738,134.936 406.405,139.269 403.5,146.5C 401.833,144.167 399.833,142.167 397.5,140.5C 401.025,139.06 404.358,137.06 407.5,134.5C 409.521,131.765 411.521,129.099 413.5,126.5 Z"/></g>
<g><path style="opacity:1" fill="#b59262" d="M 11.5,127.5 C 16.263,127.226 20.9296,127.559 25.5,128.5C 31.612,138.433 30.612,147.6 22.5,156C 16.8921,159.043 10.8921,160.209 4.5,159.5C 2.58793,157.343 0.921263,155.009 -0.5,152.5C -0.5,148.167 -0.5,143.833 -0.5,139.5C 0.97576,137.231 2.47576,134.898 4,132.5C 6.47945,130.686 8.97945,129.019 11.5,127.5 Z"/></g>
<g><path style="opacity:0.928" fill="#a47d48" d="M 25.5,128.5 C 27.5168,129.529 29.5168,130.529 31.5,131.5C 38.0173,138.973 39.1839,147.306 35,156.5C 32.931,159.406 30.431,161.739 27.5,163.5C 20.4978,165.41 13.8311,164.743 7.5,161.5C 5.97306,161.573 4.97306,160.906 4.5,159.5C 10.8921,160.209 16.8921,159.043 22.5,156C 30.612,147.6 31.612,138.433 25.5,128.5 Z"/></g>
<g><path style="opacity:1" fill="#d9c49a" d="M 8.5,132.5 C 21.1741,132.349 24.5075,137.849 18.5,149C 7.84239,152.427 3.00905,148.593 4,137.5C 5.70733,135.963 7.20733,134.296 8.5,132.5 Z"/></g>
<g><path style="opacity:1" fill="#b59261" d="M 428.5,134.5 C 435.919,144.805 434.919,154.305 425.5,163C 420.176,166.373 414.51,167.207 408.5,165.5C 404.652,162.131 402.652,157.798 402.5,152.5C 403.156,150.547 403.489,148.547 403.5,146.5C 406.405,139.269 411.738,134.936 419.5,133.5C 422.557,132.84 425.557,133.173 428.5,134.5 Z"/></g>
<g><path style="opacity:0.968" fill="#a57c47" d="M 428.5,134.5 C 439.682,139.202 443.682,147.535 440.5,159.5C 436.486,165.848 430.82,169.848 423.5,171.5C 417.437,171.963 412.437,169.963 408.5,165.5C 414.51,167.207 420.176,166.373 425.5,163C 434.919,154.305 435.919,144.805 428.5,134.5 Z"/></g>
<g><path style="opacity:1" fill="#d8c49a" d="M 412.5,138.5 C 422.06,137.889 426.226,142.223 425,151.5C 422.647,156.426 418.814,158.26 413.5,157C 407.975,154.081 406.142,149.581 408,143.5C 409.707,141.963 411.207,140.296 412.5,138.5 Z"/></g>
<g><path style="opacity:0.894" fill="#5e5850" d="M 440.5,159.5 C 441.934,162.047 443.6,164.381 445.5,166.5C 438.392,167.89 432.725,171.557 428.5,177.5C 426.844,175.54 425.177,173.54 423.5,171.5C 430.82,169.848 436.486,165.848 440.5,159.5 Z"/></g>
<g><path style="opacity:0.915" fill="#5d5850" d="M 7.5,161.5 C 13.8311,164.743 20.4978,165.41 27.5,163.5C 27.5,166.167 27.5,168.833 27.5,171.5C 27.1667,171.5 26.8333,171.5 26.5,171.5C 19.8348,168.624 13.5015,169.291 7.5,173.5C 7.5,169.5 7.5,165.5 7.5,161.5 Z"/></g>
<g><path style="opacity:1" fill="#b59261" d="M 445.5,166.5 C 447.952,167.065 450.285,167.732 452.5,168.5C 460.323,179.922 458.656,189.755 447.5,198C 442.687,200.56 437.687,201.06 432.5,199.5C 429.393,196.96 427.56,193.627 427,189.5C 426.527,185.388 427.027,181.388 428.5,177.5C 432.725,171.557 438.392,167.89 445.5,166.5 Z"/></g>
<g><path style="opacity:0.915" fill="#a47d48" d="M 452.5,168.5 C 460.572,171.448 464.905,177.282 465.5,186C 465.345,189.292 464.678,192.459 463.5,195.5C 461.061,197.534 458.728,199.701 456.5,202C 452.839,203.593 449.172,204.759 445.5,205.5C 440.241,205.369 435.907,203.369 432.5,199.5C 437.687,201.06 442.687,200.56 447.5,198C 458.656,189.755 460.323,179.922 452.5,168.5 Z"/></g>
<g><path style="opacity:1" fill="#b59261" d="M 26.5,171.5 C 31.6267,179.336 31.7934,187.336 27,195.5C 21.0563,201.87 13.8896,203.87 5.5,201.5C 0.307421,195.328 -0.859246,188.328 2,180.5C 3.69712,177.98 5.53045,175.647 7.5,173.5C 13.5015,169.291 19.8348,168.624 26.5,171.5 Z"/></g>
<g><path style="opacity:0.926" fill="#a47d48" d="M 26.5,171.5 C 26.8333,171.5 27.1667,171.5 27.5,171.5C 32.8221,173.324 36.3221,176.991 38,182.5C 39.6675,189.999 38.1675,196.666 33.5,202.5C 27.8821,206.489 21.5488,208.156 14.5,207.5C 10.6304,206.737 7.63038,204.737 5.5,201.5C 13.8896,203.87 21.0563,201.87 27,195.5C 31.7934,187.336 31.6267,179.336 26.5,171.5 Z"/></g>
<g><path style="opacity:1" fill="#d8c49a" d="M 438.5,172.5 C 447.015,172.844 450.515,177.177 449,185.5C 443.833,193.079 438.167,193.412 432,186.5C 429.746,179.576 431.913,174.909 438.5,172.5 Z"/></g>
<g><path style="opacity:1" fill="#d8c49a" d="M 9.5,175.5 C 20.3039,174.463 24.4705,179.13 22,189.5C 16.5931,194.765 11.2598,194.765 6,189.5C 4.68152,186.594 4.34819,183.594 5,180.5C 6.70733,178.963 8.20733,177.296 9.5,175.5 Z"/></g>
<g><path style="opacity:0.896" fill="#5e5850" d="M 463.5,195.5 C 464.561,198.622 465.895,201.622 467.5,204.5C 464.286,205.282 460.952,206.115 457.5,207C 454.669,209.001 452.003,211.167 449.5,213.5C 447.659,211.151 446.326,208.485 445.5,205.5C 449.172,204.759 452.839,203.593 456.5,202C 458.728,199.701 461.061,197.534 463.5,195.5 Z"/></g>
<g><path style="opacity:0.916" fill="#5d5850" d="M 33.5,202.5 C 34.1667,204.833 34.8333,207.167 35.5,209.5C 28.6107,209.94 22.6107,212.607 17.5,217.5C 16.1009,214.301 15.1009,210.968 14.5,207.5C 21.5488,208.156 27.8821,206.489 33.5,202.5 Z"/></g>
<g><path style="opacity:1" fill="#b59261" d="M 467.5,204.5 C 469.698,204.875 471.698,205.542 473.5,206.5C 478.93,214.898 478.763,223.231 473,231.5C 466.288,237.65 458.788,238.984 450.5,235.5C 445.78,228.351 445.447,221.018 449.5,213.5C 452.003,211.167 454.669,209.001 457.5,207C 460.952,206.115 464.286,205.282 467.5,204.5 Z"/></g>
<g><path style="opacity:0.958" fill="#a57c48" d="M 473.5,206.5 C 482.827,210.816 486.66,218.15 485,228.5C 484.094,231.31 482.927,233.976 481.5,236.5C 479.068,237.75 476.734,239.25 474.5,241C 470.391,241.944 466.391,242.778 462.5,243.5C 457.681,242.007 453.681,239.34 450.5,235.5C 458.788,238.984 466.288,237.65 473,231.5C 478.763,223.231 478.93,214.898 473.5,206.5 Z"/></g>
<g><path style="opacity:1" fill="#b59261" d="M 35.5,209.5 C 37.3057,210.024 38.9724,210.691 40.5,211.5C 47.2854,223.213 45.2854,233.047 34.5,241C 29.5805,242.25 24.5805,242.75 19.5,242.5C 13.6699,234.693 13.0033,226.36 17.5,217.5C 22.6107,212.607 28.6107,209.94 35.5,209.5 Z"/></g>
<g><path style="opacity:1" fill="#d9c49a" d="M 456.5,210.5 C 466.323,209.488 470.489,213.822 469,223.5C 466.103,228.155 461.937,229.655 456.5,228C 451.845,225.103 450.345,220.937 452,215.5C 453.366,213.638 454.866,211.972 456.5,210.5 Z"/></g>
<g><path style="opacity:0.955" fill="#a57c48" d="M 40.5,211.5 C 48.6156,214.458 52.6156,220.291 52.5,229C 52.3157,231.865 51.9823,234.698 51.5,237.5C 48.9578,240.03 46.2911,242.53 43.5,245C 40.4289,246.296 37.4289,247.462 34.5,248.5C 28.479,248.759 23.479,246.759 19.5,242.5C 24.5805,242.75 29.5805,242.25 34.5,241C 45.2854,233.047 47.2854,223.213 40.5,211.5 Z"/></g>
<g><path style="opacity:1" fill="#d8c499" d="M 23.5,215.5 C 34.3106,214.47 38.4772,219.136 36,229.5C 32.6923,233.327 28.5256,234.494 23.5,233C 16.8651,227.215 16.8651,221.382 23.5,215.5 Z"/></g>
<g><path style="opacity:0.896" fill="#5e5950" d="M 481.5,236.5 C 482.5,239.167 483.5,241.833 484.5,244.5C 480.818,244.335 477.152,244.501 473.5,245C 470.333,246.689 467.333,248.522 464.5,250.5C 464.122,248.079 463.455,245.746 462.5,243.5C 466.391,242.778 470.391,241.944 474.5,241C 476.734,239.25 479.068,237.75 481.5,236.5 Z"/></g>
<g><path style="opacity:0.895" fill="#5e5850" d="M 51.5,237.5 C 52.604,239.389 53.9373,241.055 55.5,242.5C 52.5964,244.295 49.5964,246.128 46.5,248C 44.3503,251.147 42.3503,254.313 40.5,257.5C 38.7583,254.357 36.7583,251.357 34.5,248.5C 37.4289,247.462 40.4289,246.296 43.5,245C 46.2911,242.53 48.9578,240.03 51.5,237.5 Z"/></g>
<g><path style="opacity:1" fill="#b59261" d="M 55.5,242.5 C 59.2343,242.323 62.9009,242.656 66.5,243.5C 73.8589,253.804 72.8589,263.304 63.5,272C 57.8543,275.456 51.8543,276.289 45.5,274.5C 41.2449,269.723 39.5782,264.056 40.5,257.5C 42.3503,254.313 44.3503,251.147 46.5,248C 49.5964,246.128 52.5964,244.295 55.5,242.5 Z"/></g>
<g><path style="opacity:0.92" fill="#a47d48" d="M 66.5,243.5 C 76.2876,247.746 80.2876,255.079 78.5,265.5C 76.6309,272.698 72.2975,277.698 65.5,280.5C 57.659,282.138 50.9923,280.138 45.5,274.5C 51.8543,276.289 57.8543,275.456 63.5,272C 72.8589,263.304 73.8589,253.804 66.5,243.5 Z"/></g>
<g><path style="opacity:1" fill="#b59261" d="M 484.5,244.5 C 491.9,250.82 493.4,258.487 489,267.5C 483.468,275.073 475.968,278.073 466.5,276.5C 459.359,268.464 458.692,259.797 464.5,250.5C 467.333,248.522 470.333,246.689 473.5,245C 477.152,244.501 480.818,244.335 484.5,244.5 Z"/></g>
<g><path style="opacity:0.903" fill="#a47d48" d="M 484.5,244.5 C 495.875,247.896 500.708,255.563 499,267.5C 498.157,271.2 496.324,274.2 493.5,276.5C 488.015,280.955 481.681,282.622 474.5,281.5C 471.151,280.831 468.484,279.164 466.5,276.5C 475.968,278.073 483.468,275.073 489,267.5C 493.4,258.487 491.9,250.82 484.5,244.5 Z"/></g>
<g><path style="opacity:1" fill="#d9c49a" d="M 50.5,248.5 C 61.1998,247.691 65.0332,252.358 62,262.5C 58.9502,266.13 55.1169,267.297 50.5,266C 42.7015,260.04 42.7015,254.207 50.5,248.5 Z"/></g>
<g><path style="opacity:1" fill="#d9c49a" d="M 470.5,249.5 C 480.323,248.488 484.489,252.822 483,262.5C 480.103,267.155 475.937,268.655 470.5,267C 465.845,264.103 464.345,259.937 466,254.5C 467.366,252.638 468.866,250.972 470.5,249.5 Z"/></g>
<g><path style="opacity:0.9" fill="#5d5850" d="M 78.5,265.5 C 80.5,266.5 82.5,267.5 84.5,268.5C 78.2454,272.783 74.9121,278.783 74.5,286.5C 71.5,284.5 68.5,282.5 65.5,280.5C 72.2975,277.698 76.6309,272.698 78.5,265.5 Z"/></g>
<g><path style="opacity:1" fill="#b59261" d="M 100.5,267.5 C 106.893,275.672 107.06,284.005 101,292.5C 95.1548,299.202 87.9881,301.202 79.5,298.5C 76.2935,295.232 74.6268,291.232 74.5,286.5C 74.9121,278.783 78.2454,272.783 84.5,268.5C 89.6947,266.315 95.028,265.981 100.5,267.5 Z"/></g>
<g><path style="opacity:0.968" fill="#a47c48" d="M 100.5,267.5 C 107.492,270.154 111.492,275.154 112.5,282.5C 113.119,289.981 110.786,296.315 105.5,301.5C 96.086,307.018 87.4194,306.018 79.5,298.5C 87.9881,301.202 95.1548,299.202 101,292.5C 107.06,284.005 106.893,275.672 100.5,267.5 Z"/></g>
<g><path style="opacity:1" fill="#d9c49a" d="M 83.5,272.5 C 89.2103,271.275 93.7103,272.941 97,277.5C 98.6155,285.379 95.4488,289.712 87.5,290.5C 81.7697,289.747 78.7697,286.413 78.5,280.5C 79.3656,277.308 81.0323,274.641 83.5,272.5 Z"/></g>
<g><path style="opacity:0.91" fill="#5c5750" d="M 493.5,276.5 C 494.482,279.763 495.149,283.097 495.5,286.5C 488.43,284.73 481.764,285.73 475.5,289.5C 475.167,286.833 474.833,284.167 474.5,281.5C 481.681,282.622 488.015,280.955 493.5,276.5 Z"/></g>
<g><path style="opacity:1" fill="#b59261" d="M 139.5,280.5 C 145.077,289.518 144.743,298.352 138.5,307C 132.807,310.964 126.473,312.464 119.5,311.5C 117.1,309.704 115.433,307.37 114.5,304.5C 113.779,301.183 113.612,297.849 114,294.5C 115.254,290.996 116.754,287.663 118.5,284.5C 124.923,279.28 131.923,277.947 139.5,280.5 Z"/></g>
<g><path style="opacity:0.952" fill="#a57d49" d="M 139.5,280.5 C 144.551,281.677 147.885,284.677 149.5,289.5C 152.227,296.258 151.894,302.924 148.5,309.5C 142.117,317.234 134.117,319.4 124.5,316C 122.382,314.951 120.716,313.451 119.5,311.5C 126.473,312.464 132.807,310.964 138.5,307C 144.743,298.352 145.077,289.518 139.5,280.5 Z"/></g>
<g><path style="opacity:1" fill="#b59261" d="M 182.5,281.5 C 190.292,295.621 186.959,306.121 172.5,313C 168.779,313.678 165.112,313.511 161.5,312.5C 160.094,312.027 159.427,311.027 159.5,309.5C 155.5,302.833 155.5,296.167 159.5,289.5C 161.394,285.116 164.727,282.282 169.5,281C 173.92,280.232 178.253,280.398 182.5,281.5 Z"/></g>
<g><path style="opacity:1" fill="#b59261" d="M 223.5,281.5 C 230.818,291.808 229.818,301.308 220.5,310C 215.176,313.373 209.51,314.207 203.5,312.5C 202.167,311.833 201.167,310.833 200.5,309.5C 197.889,302.807 197.889,296.14 200.5,289.5C 206.185,281.271 213.852,278.604 223.5,281.5 Z"/></g>
<g><path style="opacity:1" fill="#b59261" d="M 266.5,281.5 C 272.893,289.672 273.06,298.005 267,306.5C 261.012,312.745 253.846,314.745 245.5,312.5C 244.833,311.5 244.167,310.5 243.5,309.5C 240.833,302.833 240.833,296.167 243.5,289.5C 249.104,281.297 256.77,278.63 266.5,281.5 Z"/></g>
<g><path style="opacity:1" fill="#b59261" d="M 308.5,281.5 C 316.041,295.511 312.708,306.011 298.5,313C 294.779,313.678 291.112,313.511 287.5,312.5C 286.167,311.833 285.167,310.833 284.5,309.5C 281.833,302.833 281.833,296.167 284.5,289.5C 290.536,281.157 298.536,278.491 308.5,281.5 Z"/></g>
<g><path style="opacity:1" fill="#b59261" d="M 351.5,281.5 C 359.299,296.06 355.632,306.56 340.5,313C 337.112,313.659 333.779,313.492 330.5,312.5C 329.167,311.833 328.167,310.833 327.5,309.5C 324.889,302.807 324.889,296.14 327.5,289.5C 333.471,281.065 341.471,278.398 351.5,281.5 Z"/></g>
<g><path style="opacity:0.965" fill="#a47c48" d="M 182.5,281.5 C 186.749,283.088 190.082,285.755 192.5,289.5C 195.096,296.152 195.096,302.819 192.5,309.5C 186.929,317.529 179.262,320.362 169.5,318C 166.244,316.884 163.578,315.051 161.5,312.5C 165.112,313.511 168.779,313.678 172.5,313C 186.959,306.121 190.292,295.621 182.5,281.5 Z"/></g>
<g><path style="opacity:0.958" fill="#a57c48" d="M 223.5,281.5 C 228.017,282.75 231.35,285.417 233.5,289.5C 236.111,296.14 236.111,302.807 233.5,309.5C 228.284,317.302 220.951,320.135 211.5,318C 207.93,317.389 205.263,315.556 203.5,312.5C 209.51,314.207 215.176,313.373 220.5,310C 229.818,301.308 230.818,291.808 223.5,281.5 Z"/></g>
<g><path style="opacity:0.957" fill="#a47d48" d="M 266.5,281.5 C 270.704,283.033 274.037,285.7 276.5,289.5C 279.042,296.124 279.042,302.791 276.5,309.5C 271.203,317.326 263.869,320.159 254.5,318C 250.819,317.128 247.819,315.294 245.5,312.5C 253.846,314.745 261.012,312.745 267,306.5C 273.06,298.005 272.893,289.672 266.5,281.5 Z"/></g>
<g><path style="opacity:0.958" fill="#a47c48" d="M 308.5,281.5 C 312.788,282.792 315.788,285.458 317.5,289.5C 321.5,296.167 321.5,302.833 317.5,309.5C 315.606,313.884 312.273,316.718 307.5,318C 303.5,318.667 299.5,318.667 295.5,318C 292.279,316.896 289.612,315.063 287.5,312.5C 291.112,313.511 294.779,313.678 298.5,313C 312.708,306.011 316.041,295.511 308.5,281.5 Z"/></g>
<g><path style="opacity:0.96" fill="#a57c48" d="M 351.5,281.5 C 356.833,283.5 360.5,287.167 362.5,292.5C 363.09,299.13 362.09,305.464 359.5,311.5C 352.831,318.472 344.831,320.305 335.5,317C 333.34,316.004 331.673,314.504 330.5,312.5C 333.779,313.492 337.112,313.659 340.5,313C 355.632,306.56 359.299,296.06 351.5,281.5 Z"/></g>
<g><path style="opacity:0.885" fill="#5c5850" d="M 112.5,282.5 C 114.421,283.363 116.421,284.029 118.5,284.5C 116.754,287.663 115.254,290.996 114,294.5C 113.612,297.849 113.779,301.183 114.5,304.5C 111.452,303.654 108.452,302.654 105.5,301.5C 110.786,296.315 113.119,289.981 112.5,282.5 Z"/></g>
<g><path style="opacity:1" fill="#d8c399" d="M 123.5,284.5 C 135.722,284.788 139.055,290.288 133.5,301C 123.774,305.274 118.608,302.108 118,291.5C 118.967,288.379 120.8,286.046 123.5,284.5 Z"/></g>
<g><path style="opacity:1" fill="#d8c499" d="M 167.5,285.5 C 176.207,285.699 180.04,290.033 179,298.5C 175.034,304.924 169.867,306.091 163.5,302C 159.204,295.065 160.538,289.565 167.5,285.5 Z"/></g>
<g><path style="opacity:1" fill="#d8c49a" d="M 208.5,285.5 C 217.53,285.359 221.363,289.692 220,298.5C 214.952,306.072 209.285,306.405 203,299.5C 201.268,293.314 203.101,288.647 208.5,285.5 Z"/></g>
<g><path style="opacity:1" fill="#d8c399" d="M 251.5,285.5 C 261.415,285.994 264.915,290.994 262,300.5C 254.476,306.809 248.809,305.476 245,296.5C 244.814,291.504 246.981,287.837 251.5,285.5 Z"/></g>
<g><path style="opacity:1" fill="#d8c499" d="M 292.5,285.5 C 302.195,285.674 306.028,290.34 304,299.5C 298.971,305.51 293.637,305.844 288,300.5C 285.064,294.058 286.564,289.058 292.5,285.5 Z"/></g>
<g><path style="opacity:1" fill="#d9c49a" d="M 335.5,285.5 C 344.991,285.493 348.824,290.159 347,299.5C 340.956,306.217 335.289,305.884 330,298.5C 328.571,292.7 330.404,288.367 335.5,285.5 Z"/></g>
<g><path style="opacity:1" fill="#b59261" d="M 495.5,286.5 C 502.854,296.838 501.854,306.338 492.5,315C 486.854,318.456 480.854,319.289 474.5,317.5C 467.73,308.032 468.063,298.699 475.5,289.5C 481.764,285.73 488.43,284.73 495.5,286.5 Z"/></g>
<g><path style="opacity:0.921" fill="#a47c48" d="M 495.5,286.5 C 503.637,289.652 507.971,295.652 508.5,304.5C 508.167,310.837 505.5,315.837 500.5,319.5C 494.672,323.482 488.339,324.482 481.5,322.5C 478.865,321.189 476.531,319.522 474.5,317.5C 480.854,319.289 486.854,318.456 492.5,315C 501.854,306.338 502.854,296.838 495.5,286.5 Z"/></g>
<g><path style="opacity:1" fill="#b59261" d="M 391.5,289.5 C 397.524,299.431 396.524,308.598 388.5,317C 382.892,320.043 376.892,321.209 370.5,320.5C 368.412,318.664 367.079,316.331 366.5,313.5C 364.428,306.128 365.762,299.462 370.5,293.5C 376.771,287.844 383.771,286.511 391.5,289.5 Z"/></g>
<g><path style="opacity:0.919" fill="#5d5850" d="M 149.5,289.5 C 152.833,289.5 156.167,289.5 159.5,289.5C 155.5,296.167 155.5,302.833 159.5,309.5C 155.833,309.5 152.167,309.5 148.5,309.5C 151.894,302.924 152.227,296.258 149.5,289.5 Z"/></g>
<g><path style="opacity:0.905" fill="#5d5851" d="M 192.5,289.5 C 195.167,289.5 197.833,289.5 200.5,289.5C 197.889,296.14 197.889,302.807 200.5,309.5C 197.833,309.5 195.167,309.5 192.5,309.5C 195.096,302.819 195.096,296.152 192.5,289.5 Z"/></g>
<g><path style="opacity:0.916" fill="#5f5950" d="M 233.5,289.5 C 236.833,289.5 240.167,289.5 243.5,289.5C 240.833,296.167 240.833,302.833 243.5,309.5C 240.167,309.5 236.833,309.5 233.5,309.5C 236.111,302.807 236.111,296.14 233.5,289.5 Z"/></g>
<g><path style="opacity:0.906" fill="#5c5750" d="M 276.5,289.5 C 279.167,289.5 281.833,289.5 284.5,289.5C 281.833,296.167 281.833,302.833 284.5,309.5C 281.833,309.5 279.167,309.5 276.5,309.5C 279.042,302.791 279.042,296.124 276.5,289.5 Z"/></g>
<g><path style="opacity:0.914" fill="#5c5850" d="M 317.5,289.5 C 320.833,289.5 324.167,289.5 327.5,289.5C 324.889,296.14 324.889,302.807 327.5,309.5C 324.167,309.5 320.833,309.5 317.5,309.5C 321.5,302.833 321.5,296.167 317.5,289.5 Z"/></g>
<g><path style="opacity:0.915" fill="#a47c48" d="M 391.5,289.5 C 398.452,292.121 402.452,297.121 403.5,304.5C 403.396,311.373 401.063,317.373 396.5,322.5C 387.272,328.261 378.605,327.594 370.5,320.5C 376.892,321.209 382.892,320.043 388.5,317C 396.524,308.598 397.524,299.431 391.5,289.5 Z"/></g>
<g><path style="opacity:1" fill="#d8c399" d="M 480.5,290.5 C 489.456,290.448 493.289,294.782 492,303.5C 487.737,310.157 482.403,311.157 476,306.5C 471.951,299.599 473.451,294.266 480.5,290.5 Z"/></g>
<g><path style="opacity:0.915" fill="#5f5950" d="M 362.5,292.5 C 365.206,292.575 367.873,292.908 370.5,293.5C 365.762,299.462 364.428,306.128 366.5,313.5C 364.167,312.833 361.833,312.167 359.5,311.5C 362.09,305.464 363.09,299.13 362.5,292.5 Z"/></g>
<g><path style="opacity:1" fill="#d8c49a" d="M 374.5,293.5 C 385.311,292.47 389.477,297.136 387,307.5C 383.692,311.327 379.526,312.494 374.5,311C 367.865,305.215 367.865,299.382 374.5,293.5 Z"/></g>
<g><path style="opacity:0.91" fill="#5c5750" d="M 403.5,304.5 C 406.833,305.833 410.167,307.167 413.5,308.5C 407.046,312.419 403.379,318.086 402.5,325.5C 400.181,325.008 398.181,324.008 396.5,322.5C 401.063,317.373 403.396,311.373 403.5,304.5 Z"/></g>
<g><path style="opacity:1" fill="#b59261" d="M 429.5,308.5 C 436.583,320.658 434.249,330.492 422.5,338C 417.555,339.827 412.555,339.994 407.5,338.5C 404.476,334.769 402.809,330.436 402.5,325.5C 403.379,318.086 407.046,312.419 413.5,308.5C 418.938,305.885 424.271,305.885 429.5,308.5 Z"/></g>
<g><path style="opacity:0.915" fill="#a47d48" d="M 429.5,308.5 C 438.065,312.278 442.065,318.945 441.5,328.5C 440.26,331.024 439.093,333.691 438,336.5C 435.271,339.399 432.438,342.066 429.5,344.5C 420.89,346.736 413.557,344.736 407.5,338.5C 412.555,339.994 417.555,339.827 422.5,338C 434.249,330.492 436.583,320.658 429.5,308.5 Z"/></g>
<g><path style="opacity:1" fill="#d9c49a" d="M 412.5,312.5 C 422.323,311.488 426.489,315.822 425,325.5C 422.103,330.155 417.937,331.655 412.5,330C 407.845,327.103 406.345,322.937 408,317.5C 409.366,315.638 410.866,313.972 412.5,312.5 Z"/></g>
<g><path style="opacity:0.926" fill="#5c5750" d="M 500.5,319.5 C 501.244,323.119 501.577,326.785 501.5,330.5C 501.167,330.5 500.833,330.5 500.5,330.5C 494.038,327.711 487.704,328.045 481.5,331.5C 481.5,328.5 481.5,325.5 481.5,322.5C 488.339,324.482 494.672,323.482 500.5,319.5 Z"/></g>
<g><path style="opacity:0.896" fill="#5c5750" d="M 441.5,328.5 C 445.909,331.367 449.909,334.701 453.5,338.5C 445.414,338.045 439.08,341.045 434.5,347.5C 432.668,346.752 431.001,345.752 429.5,344.5C 432.438,342.066 435.271,339.399 438,336.5C 439.093,333.691 440.26,331.024 441.5,328.5 Z"/></g>
<g><path style="opacity:1" fill="#b59261" d="M 500.5,330.5 C 507.434,350.905 500.1,360.905 478.5,360.5C 478.167,360.5 477.833,360.5 477.5,360.5C 472.418,352.316 472.252,343.983 477,335.5C 478.371,333.959 479.871,332.625 481.5,331.5C 487.704,328.045 494.038,327.711 500.5,330.5 Z"/></g>
<g><path style="opacity:0.965" fill="#a47d49" d="M 500.5,330.5 C 500.833,330.5 501.167,330.5 501.5,330.5C 506.258,332.923 509.592,336.589 511.5,341.5C 511.5,345.5 511.5,349.5 511.5,353.5C 510.108,355.273 508.941,357.273 508,359.5C 506.549,361.464 504.716,362.797 502.5,363.5C 495.833,367.5 489.167,367.5 482.5,363.5C 481.609,362.89 480.609,362.557 479.5,362.5C 479.5,361.833 479.167,361.5 478.5,361.5C 478.5,361.167 478.5,360.833 478.5,360.5C 500.1,360.905 507.434,350.905 500.5,330.5 Z"/></g>
<g><path style="opacity:1" fill="#d8c398" d="M 483.5,333.5 C 492.987,332.819 497.154,337.153 496,346.5C 490,354.5 484,354.5 478,346.5C 476.831,340.853 478.665,336.519 483.5,333.5 Z"/></g>
<g><path style="opacity:1" fill="#b59261" d="M 453.5,338.5 C 455.099,338.232 456.432,338.566 457.5,339.5C 464.818,349.808 463.818,359.308 454.5,368C 449.176,371.373 443.51,372.207 437.5,370.5C 430.969,363.636 429.969,355.969 434.5,347.5C 439.08,341.045 445.414,338.045 453.5,338.5 Z"/></g>
<g><path style="opacity:0.971" fill="#a57c48" d="M 457.5,339.5 C 464.556,341.597 468.89,346.263 470.5,353.5C 470.588,361.573 467.588,368.239 461.5,373.5C 460.158,374.793 458.491,375.626 456.5,376C 448.903,377.928 442.57,376.095 437.5,370.5C 443.51,372.207 449.176,371.373 454.5,368C 463.818,359.308 464.818,349.808 457.5,339.5 Z"/></g>
<g><path style="opacity:1" fill="#d9c49a" d="M 443.5,343.5 C 453.437,344.263 456.604,349.263 453,358.5C 447.375,363.935 442.042,363.602 437,357.5C 434.746,350.576 436.913,345.909 443.5,343.5 Z"/></g>
<g><path style="opacity:0.957" fill="#5c5751" d="M 470.5,353.5 C 472.5,356.167 474.833,358.5 477.5,360.5C 477.5,361.167 477.833,361.5 478.5,361.5C 479.167,361.5 479.5,361.833 479.5,362.5C 480.678,365.217 481.678,365.55 482.5,363.5C 489.167,367.5 495.833,367.5 502.5,363.5C 502.5,369.5 502.5,375.5 502.5,381.5C 491.781,375.139 482.114,376.472 473.5,385.5C 469.833,381.167 465.833,377.167 461.5,373.5C 467.588,368.239 470.588,361.573 470.5,353.5 Z"/></g>
<g><path style="opacity:1" fill="#e0b771" d="M 336.5,451.5 C 331.601,450.048 327.267,447.548 323.5,444C 309.828,437.221 295.828,431.221 281.5,426C 264.207,418.884 254.873,406.051 253.5,387.5C 259.297,381.202 265.297,375.035 271.5,369C 287.947,368.81 300.114,375.977 308,390.5C 313.723,403.004 319.057,415.67 324,428.5C 326.542,434.365 329.875,439.699 334,444.5C 335.411,446.65 336.245,448.984 336.5,451.5 Z"/></g>
<g><path style="opacity:0.976" fill="#b59261" d="M 502.5,381.5 C 504.914,382.911 506.581,384.911 507.5,387.5C 507.242,391.44 506.076,395.107 504,398.5C 484.833,417.667 465.667,436.833 446.5,456C 435.742,461.992 426.576,460.158 419,450.5C 418.506,448.866 418.34,447.199 418.5,445.5C 419.176,441.813 420.676,438.48 423,435.5C 439.701,418.632 456.535,401.965 473.5,385.5C 482.114,376.472 491.781,375.139 502.5,381.5 Z"/></g>
<g><path style="opacity:1" fill="#d9c49a" d="M 486.5,379.5 C 495.55,379.377 499.383,383.71 498,392.5C 495.571,397.202 491.738,399.035 486.5,398C 480.975,395.081 479.142,390.581 481,384.5C 482.73,382.598 484.563,380.931 486.5,379.5 Z"/></g>
<g><path style="opacity:0.898" fill="#a47d48" d="M 507.5,387.5 C 510.664,395.174 509.831,402.507 505,409.5C 487.167,427.333 469.333,445.167 451.5,463C 446.371,467.542 440.371,469.375 433.5,468.5C 426.611,466.24 421.611,461.907 418.5,455.5C 417.3,452.031 417.3,448.698 418.5,445.5C 418.34,447.199 418.506,448.866 419,450.5C 426.576,460.158 435.742,461.992 446.5,456C 465.667,436.833 484.833,417.667 504,398.5C 506.076,395.107 507.242,391.44 507.5,387.5 Z"/></g>
<g><path style="opacity:0.976" fill="#d4a150" d="M 253.5,387.5 C 254.873,406.051 264.207,418.884 281.5,426C 295.828,431.221 309.828,437.221 323.5,444C 327.267,447.548 331.601,450.048 336.5,451.5C 337.657,455.117 337.657,458.784 336.5,462.5C 333.475,468.859 328.808,473.525 322.5,476.5C 317.493,477.881 312.493,477.714 307.5,476C 302.167,472.667 296.833,469.333 291.5,466C 276.586,460.251 261.92,453.917 247.5,447C 234.644,439.124 228.144,427.624 228,412.5C 236.368,403.964 244.868,395.631 253.5,387.5 Z"/></g>
<g><path style="opacity:0.919" fill="#5b5750" d="M 418.5,455.5 C 421.611,461.907 426.611,466.24 433.5,468.5C 429.618,473.437 424.952,477.437 419.5,480.5C 418.11,473.373 414.11,468.373 407.5,465.5C 407.5,465.167 407.5,464.833 407.5,464.5C 411.482,461.848 415.149,458.848 418.5,455.5 Z"/></g>
<g><path style="opacity:0.918" fill="#5c5851" d="M 336.5,462.5 C 338.657,464.412 340.991,466.079 343.5,467.5C 338.214,472.685 335.881,479.019 336.5,486.5C 331.091,484.136 326.424,480.802 322.5,476.5C 328.808,473.525 333.475,468.859 336.5,462.5 Z"/></g>
<g><path style="opacity:1" fill="#b59261" d="M 362.5,465.5 C 368.758,476.101 367.424,485.601 358.5,494C 353.068,496.205 347.402,497.038 341.5,496.5C 338.799,493.765 337.132,490.431 336.5,486.5C 335.881,479.019 338.214,472.685 343.5,467.5C 349.664,463.653 355.997,462.986 362.5,465.5 Z"/></g>
<g><path style="opacity:1" fill="#b59261" d="M 407.5,464.5 C 407.5,464.833 407.5,465.167 407.5,465.5C 412.242,472.76 412.742,480.427 409,488.5C 403.477,495.399 396.311,498.065 387.5,496.5C 387.167,496.5 386.833,496.5 386.5,496.5C 385.013,493.527 383.513,490.527 382,487.5C 381.421,483.797 381.588,480.131 382.5,476.5C 387.611,466.009 395.944,462.009 407.5,464.5 Z"/></g>
<g><path style="opacity:0.96" fill="#a47c48" d="M 362.5,465.5 C 367.833,467.5 371.5,471.167 373.5,476.5C 375.572,483.872 374.238,490.538 369.5,496.5C 363.228,502.506 355.895,504.006 347.5,501C 345.253,499.723 343.253,498.223 341.5,496.5C 347.402,497.038 353.068,496.205 358.5,494C 367.424,485.601 368.758,476.101 362.5,465.5 Z"/></g>
<g><path style="opacity:0.959" fill="#a57d48" d="M 407.5,465.5 C 414.11,468.373 418.11,473.373 419.5,480.5C 419.212,498.252 410.212,505.086 392.5,501C 390.382,499.951 388.716,498.451 387.5,496.5C 396.311,498.065 403.477,495.399 409,488.5C 412.742,480.427 412.242,472.76 407.5,465.5 Z"/></g>
<g><path style="opacity:1" fill="#d8c499" d="M 346.5,469.5 C 356.746,469.015 360.579,473.681 358,483.5C 351.883,490.385 346.217,490.051 341,482.5C 339.571,476.7 341.404,472.367 346.5,469.5 Z"/></g>
<g><path style="opacity:1" fill="#d8c499" d="M 391.5,469.5 C 403.735,469.817 407.068,475.317 401.5,486C 391.774,490.274 386.608,487.108 386,476.5C 386.967,473.379 388.8,471.046 391.5,469.5 Z"/></g>
<g><path style="opacity:0.93" fill="#5c5751" d="M 373.5,476.5 C 376.5,477.833 379.5,477.833 382.5,476.5C 381.588,480.131 381.421,483.797 382,487.5C 383.513,490.527 385.013,493.527 386.5,496.5C 380.833,496.5 375.167,496.5 369.5,496.5C 374.238,490.538 375.572,483.872 373.5,476.5 Z"/></g>
</svg>
