<?xml version="1.0" encoding="UTF-8"?>
<!DOCTYPE svg PUBLIC "-//W3C//DTD SVG 1.1//EN" "http://www.w3.org/Graphics/SVG/1.1/DTD/svg11.dtd">
<svg xmlns="http://www.w3.org/2000/svg" version="1.1" width="512px" height="512px" style="shape-rendering:geometricPrecision; text-rendering:geometricPrecision; image-rendering:optimizeQuality; fill-rule:evenodd; clip-rule:evenodd" xmlns:xlink="http://www.w3.org/1999/xlink">
<g><path style="opacity:0.988" fill="#0b3254" d="M 111.5,17.5 C 164.073,15.9329 201.739,38.5996 224.5,85.5C 308.706,61.7579 381.54,80.7579 443,142.5C 493.588,201.537 508.921,268.87 489,344.5C 462.755,422.374 409.588,470.541 329.5,489C 251.745,501.527 185.911,479.36 132,422.5C 85.411,366.565 70.2444,303.065 86.5,232C 33.1286,208.594 8.96196,167.761 14,109.5C 22.7914,65.7095 48.2914,36.5429 90.5,22C 97.5695,20.1547 104.57,18.6547 111.5,17.5 Z"/></g>
<g><path style="opacity:1" fill="#fdf5c9" d="M 169.5,213.5 C 168.847,195.136 169.513,177.136 171.5,159.5C 178.273,161.23 181.107,158.563 180,151.5C 178.736,149.393 176.903,148.393 174.5,148.5C 186.065,122.599 181.399,100.099 160.5,81C 151.833,74.3333 143.167,67.6667 134.5,61C 131.112,58.2141 128.446,54.8807 126.5,51C 124.305,49.627 121.971,49.2937 119.5,50C 111.758,60.0729 102.425,68.4062 91.5,75C 78.3573,84.4727 69.524,96.9727 65,112.5C 62.9537,124.695 64.7871,136.195 70.5,147C 65.3638,148.772 63.5305,152.272 65,157.5C 68.2234,161.017 71.7234,161.35 75.5,158.5C 75.8301,176.341 75.4967,194.008 74.5,211.5C 34.4548,185.919 18.9548,149.586 28,102.5C 38.0256,69.9181 58.8589,47.4181 90.5,35C 130.854,23.6288 165.687,32.7955 195,62.5C 223.386,97.708 227.053,135.375 206,175.5C 204.805,182.581 206.471,188.914 211,194.5C 216.979,201.98 223.145,209.313 229.5,216.5C 228.624,217.251 227.624,217.751 226.5,218C 216.833,218.667 207.167,218.667 197.5,218C 188.228,216.045 178.895,214.545 169.5,213.5 Z"/></g>
<g><path style="opacity:1" fill="#1cd3c2" d="M 121.5,65.5 C 130.745,73.4661 140.411,80.9661 150.5,88C 166.75,101.08 171.916,117.58 166,137.5C 164.833,139.333 163.667,141.167 162.5,143C 149.252,141.407 135.919,140.574 122.5,140.5C 110.054,140.152 97.7209,141.152 85.5,143.5C 83.626,143.61 82.126,142.944 81,141.5C 75.0324,128.86 75.0324,116.193 81,103.5C 84.7538,97.7419 89.2538,92.5752 94.5,88C 100.884,82.6153 107.55,77.6153 114.5,73C 117.039,70.6303 119.372,68.1303 121.5,65.5 Z"/></g>
<g><path style="opacity:1" fill="#fecaa2" d="M 271.5,87.5 C 339.783,84.4084 396.283,108.408 441,159.5C 486.032,218.001 496.699,282.334 473,352.5C 440.691,429.444 382.858,471.944 299.5,480C 224.045,481.692 165.211,451.525 123,389.5C 93.5864,340.69 85.753,288.69 99.5,233.5C 115.509,237.446 131.509,237.279 147.5,233C 155.496,230.913 163.33,228.413 171,225.5C 190.968,230.366 211.135,231.533 231.5,229C 235.835,228.33 239.835,226.83 243.5,224.5C 244.908,220.761 244.741,217.094 243,213.5C 236.373,205.204 229.373,197.204 222,189.5C 219.97,186.774 218.47,183.774 217.5,180.5C 230.869,154.58 234.202,127.413 227.5,99C 227.645,98.228 227.978,97.5613 228.5,97C 242.705,92.5952 257.038,89.4285 271.5,87.5 Z"/></g>
<g><path style="opacity:1" fill="#143556" d="M 286.5,105.5 C 289.652,104.959 292.152,105.959 294,108.5C 294.667,119.833 294.667,131.167 294,142.5C 291.833,145.287 288.999,146.12 285.5,145C 284.299,144.097 283.465,142.931 283,141.5C 282.333,130.833 282.333,120.167 283,109.5C 284.376,108.295 285.542,106.962 286.5,105.5 Z"/></g>
<g><path style="opacity:1" fill="#153656" d="M 372.5,128.5 C 379.314,128.49 381.814,131.823 380,138.5C 378,141.833 376,145.167 374,148.5C 368.762,153.065 364.929,152.065 362.5,145.5C 365.073,139.35 368.406,133.683 372.5,128.5 Z"/></g>
<g><path style="opacity:1" fill="#4992a7" d="M 100.5,152.5 C 119.636,151.74 138.636,152.74 157.5,155.5C 157.5,176.167 157.5,196.833 157.5,217.5C 139.553,223.462 121.22,224.962 102.5,222C 97.7214,220.806 93.0548,219.306 88.5,217.5C 87.5003,196.844 87.167,176.177 87.5,155.5C 91.9834,154.627 96.3168,153.627 100.5,152.5 Z"/></g>
<g><path style="opacity:1" fill="#2e5066" d="M 75.5,158.5 C 76.8274,176.338 76.8274,194.338 75.5,212.5C 74.8933,212.376 74.56,212.043 74.5,211.5C 75.4967,194.008 75.8301,176.341 75.5,158.5 Z"/></g>
<g><path style="opacity:1" fill="#657c81" d="M 171.5,159.5 C 169.513,177.136 168.847,195.136 169.5,213.5C 168.503,195.341 168.17,177.008 168.5,158.5C 169.791,158.263 170.791,158.596 171.5,159.5 Z"/></g>
<g><path style="opacity:1" fill="#103455" d="M 285.5,166.5 C 288.602,166.154 291.435,166.821 294,168.5C 294.5,199.832 294.667,231.165 294.5,262.5C 302.913,265.078 308.579,270.578 311.5,279C 326.167,279.333 340.833,279.667 355.5,280C 360.796,283.567 360.796,287.234 355.5,291C 340.5,291.333 325.5,291.667 310.5,292C 301.696,306.867 289.696,310.201 274.5,302C 266.184,293.442 264.351,283.609 269,272.5C 272.373,267.572 276.873,264.238 282.5,262.5C 282.333,231.832 282.5,201.165 283,170.5C 283.662,169.016 284.496,167.683 285.5,166.5 Z"/></g>
<g><path style="opacity:1" fill="#123456" d="M 436.5,191.5 C 442.795,191.984 444.961,195.317 443,201.5C 438.916,204.126 434.75,206.626 430.5,209C 424.166,210.329 421.332,207.829 422,201.5C 426.639,197.774 431.472,194.44 436.5,191.5 Z"/></g>
<g><path style="opacity:1" fill="#1cd1c1" d="M 284.5,273.5 C 294.714,272.224 299.547,276.557 299,286.5C 296.568,293.302 291.735,295.802 284.5,294C 278.891,290.723 277.058,285.89 279,279.5C 280.36,276.977 282.193,274.977 284.5,273.5 Z"/></g>
<g><path style="opacity:1" fill="#173657" d="M 113.5,278.5 C 124.838,278.333 136.172,278.5 147.5,279C 150.825,281.635 151.325,284.802 149,288.5C 148.25,289.126 147.416,289.626 146.5,290C 135.833,290.667 125.167,290.667 114.5,290C 109.624,286.479 109.29,282.646 113.5,278.5 Z"/></g>
<g><path style="opacity:1" fill="#183657" d="M 429.5,278.5 C 441.171,278.333 452.838,278.5 464.5,279C 468.658,283.391 467.992,287.058 462.5,290C 452.167,290.667 441.833,290.667 431.5,290C 427.708,287.947 426.542,284.781 428,280.5C 428.717,279.956 429.217,279.289 429.5,278.5 Z"/></g>
<g><path style="opacity:1" fill="#153656" d="M 146.5,358.5 C 153.327,357.174 156.494,359.84 156,366.5C 150.598,371.45 144.431,374.616 137.5,376C 133.99,374.093 132.824,371.26 134,367.5C 138.322,364.601 142.489,361.601 146.5,358.5 Z"/></g>
<g><path style="opacity:1" fill="#123456" d="M 424.5,358.5 C 431.531,359.097 437.697,361.764 443,366.5C 444.682,371.433 443.182,374.766 438.5,376.5C 433.893,374.863 429.56,372.696 425.5,370C 420.624,366.479 420.29,362.646 424.5,358.5 Z"/></g>
<g><path style="opacity:1" fill="#153656" d="M 206.5,416.5 C 212.82,416.32 215.32,419.32 214,425.5C 211.746,429.007 209.746,432.673 208,436.5C 202.446,441.152 198.613,439.985 196.5,433C 199.191,427.118 202.525,421.618 206.5,416.5 Z"/></g>
<g><path style="opacity:1" fill="#133556" d="M 366.5,416.5 C 368.199,416.34 369.866,416.506 371.5,417C 377.003,422.489 379.836,428.989 380,436.5C 378.136,439.207 375.636,440.041 372.5,439C 366.997,433.511 364.164,427.011 364,419.5C 365.045,418.627 365.878,417.627 366.5,416.5 Z"/></g>
<g><path style="opacity:1" fill="#153556" d="M 285.5,422.5 C 289.013,421.876 291.847,422.876 294,425.5C 294.667,436.833 294.667,448.167 294,459.5C 290.021,463.644 286.355,463.31 283,458.5C 282.333,447.833 282.333,437.167 283,426.5C 283.662,425.016 284.496,423.683 285.5,422.5 Z"/></g>
</svg>
