<?xml version="1.0" encoding="UTF-8"?>
<!DOCTYPE svg PUBLIC "-//W3C//DTD SVG 1.1//EN" "http://www.w3.org/Graphics/SVG/1.1/DTD/svg11.dtd">
<svg xmlns="http://www.w3.org/2000/svg" version="1.1" width="512px" height="512px" style="shape-rendering:geometricPrecision; text-rendering:geometricPrecision; image-rendering:optimizeQuality; fill-rule:evenodd; clip-rule:evenodd" xmlns:xlink="http://www.w3.org/1999/xlink">
<g><path style="opacity:0.997" fill="#fdfae0" d="M 81.5,10.5 C 81.5,76.8333 81.5,143.167 81.5,209.5C 65.1667,222.167 48.8333,234.833 32.5,247.5C 32.3333,180.833 32.5,114.166 33,47.5C 37.9961,43.6007 42.8294,39.6007 47.5,35.5C 58.8333,27.1667 70.1667,18.8333 81.5,10.5 Z"/></g>
<g><path style="opacity:0.995" fill="#d4d1bc" d="M 81.5,10.5 C 116.219,18.0109 150.885,25.8443 185.5,34C 221.525,45.524 244.858,69.3574 255.5,105.5C 255.168,172.002 255.501,238.335 256.5,304.5C 255.528,305.751 254.861,305.418 254.5,303.5C 243.626,266.46 219.626,242.627 182.5,232C 148.888,224.183 115.221,216.683 81.5,209.5C 81.5,143.167 81.5,76.8333 81.5,10.5 Z"/></g>
<g><path style="opacity:0.995" fill="#fdfae0" d="M 428.5,10.5 C 428.83,76.9045 428.496,143.238 427.5,209.5C 393.093,216.903 358.76,224.736 324.5,233C 288.965,244.7 266.298,268.533 256.5,304.5C 255.501,238.335 255.168,172.002 255.5,105.5C 265.583,70.9153 287.583,47.4153 321.5,35C 357.11,26.5118 392.777,18.3451 428.5,10.5 Z"/></g>
<g><path style="opacity:0.997" fill="#d5d2bd" d="M 428.5,10.5 C 440.093,18.0861 451.426,26.0861 462.5,34.5C 467.139,39.2923 472.306,43.6256 478,47.5C 478.5,114.166 478.667,180.833 478.5,247.5C 462.376,235.215 446.376,222.715 430.5,210C 429.552,209.517 428.552,209.351 427.5,209.5C 428.496,143.238 428.83,76.9045 428.5,10.5 Z"/></g>
<g><path style="opacity:0.997" fill="#668577" d="M 47.5,35.5 C 42.8294,39.6007 37.9961,43.6007 33,47.5C 32.5,114.166 32.3333,180.833 32.5,247.5C 93.988,272.002 155.655,296.335 217.5,320.5C 218.183,320.137 218.85,319.804 219.5,319.5C 219.511,321.017 220.177,322.184 221.5,323C 245.509,341.366 268.842,340.533 291.5,320.5C 354.002,296.409 416.335,272.076 478.5,247.5C 478.667,180.833 478.5,114.166 478,47.5C 472.306,43.6256 467.139,39.2923 462.5,34.5C 468.195,32.4056 474.028,30.7389 480,29.5C 491.232,30.8975 497.065,37.2309 497.5,48.5C 497.667,115.834 497.5,183.167 497,250.5C 495.764,257.402 491.931,262.235 485.5,265C 424.833,288.667 364.167,312.333 303.5,336C 293.351,343.171 282.351,348.838 270.5,353C 265.536,353.912 260.536,354.412 255.5,354.5C 238.167,354.003 222.833,348.17 209.5,337C 146.609,312.888 83.9428,288.221 21.5,263C 17.334,259.835 14.834,255.668 14,250.5C 13.5,183.167 13.3333,115.834 13.5,48.5C 13.9009,37.2626 19.7342,30.9292 31,29.5C 36.9933,30.4393 42.4933,32.4393 47.5,35.5 Z"/></g>
<g><path style="opacity:0.998" fill="#a47c48" d="M 13.5,48.5 C 13.3333,115.834 13.5,183.167 14,250.5C 14.834,255.668 17.334,259.835 21.5,263C 83.9428,288.221 146.609,312.888 209.5,337C 222.833,348.17 238.167,354.003 255.5,354.5C 255.5,360.833 255.5,367.167 255.5,373.5C 170.083,340.361 84.7495,307.028 -0.5,273.5C -0.5,203.5 -0.5,133.5 -0.5,63.5C 2.07273,56.5924 6.7394,51.5924 13.5,48.5 Z"/></g>
<g><path style="opacity:0.998" fill="#c8ac7f" d="M 497.5,48.5 C 504.494,51.8358 509.16,57.1691 511.5,64.5C 511.5,134.5 511.5,204.5 511.5,274.5C 426.177,307.493 340.844,340.493 255.5,373.5C 255.5,367.167 255.5,360.833 255.5,354.5C 260.536,354.412 265.536,353.912 270.5,353C 282.351,348.838 293.351,343.171 303.5,336C 364.167,312.333 424.833,288.667 485.5,265C 491.931,262.235 495.764,257.402 497,250.5C 497.5,183.167 497.667,115.834 497.5,48.5 Z"/></g>
<g><path style="opacity:1" fill="#ada999" d="M 114.5,52.5 C 143.655,56.7884 172.322,63.2884 200.5,72C 214.942,78.1125 227.442,86.9458 238,98.5C 241.444,107.794 238.277,112.627 228.5,113C 222.877,109.045 217.543,104.712 212.5,100C 206.154,95.8256 199.488,92.159 192.5,89C 166.2,82.1205 139.866,75.4538 113.5,69C 107.976,63.1292 108.309,57.6292 114.5,52.5 Z"/></g>
<g><path style="opacity:1" fill="#aeaa99" d="M 385.5,52.5 C 396.65,50.1584 401.483,54.4917 400,65.5C 398.457,67.3783 396.624,68.8783 394.5,70C 369.679,75.372 345.012,81.372 320.5,88C 307.985,93.0887 296.985,100.422 287.5,110C 281.771,115.108 276.604,114.608 272,108.5C 271.333,105.5 271.333,102.5 272,99.5C 285.67,84.58 302.17,74.08 321.5,68C 343.046,63.141 364.38,57.9744 385.5,52.5 Z"/></g>
<g><path style="opacity:1" fill="#ada999" d="M 114.5,108.5 C 117.85,108.335 121.183,108.502 124.5,109C 140.833,112.667 157.167,116.333 173.5,120C 199.661,124.23 221.495,136.064 239,155.5C 240.833,165.667 236.667,169.833 226.5,168C 212.879,154.073 196.546,144.74 177.5,140C 157.09,135.654 136.757,130.987 116.5,126C 108.064,120.998 107.397,115.165 114.5,108.5 Z"/></g>
<g><path style="opacity:1" fill="#aeaa99" d="M 384.5,108.5 C 388.182,108.335 391.848,108.501 395.5,109C 400.069,111.541 401.569,115.375 400,120.5C 399.215,122.286 398.049,123.786 396.5,125C 370.72,130.862 345.053,137.195 319.5,144C 306.27,149.777 294.603,157.777 284.5,168C 272.193,168.895 268.693,163.728 274,152.5C 287.176,139.323 302.676,129.823 320.5,124C 342.073,119.298 363.407,114.131 384.5,108.5 Z"/></g>
<g><path style="opacity:1" fill="#ada999" d="M 116.5,163.5 C 145.168,168.835 173.502,175.669 201.5,184C 216.295,190.141 228.795,199.307 239,211.5C 240.5,221.333 236.333,225.5 226.5,224C 213.282,210.052 197.282,200.719 178.5,196C 157.787,191.548 137.12,186.881 116.5,182C 107.247,175.787 107.247,169.62 116.5,163.5 Z"/></g>
<g><path style="opacity:1" fill="#aeaa99" d="M 387.5,163.5 C 397.039,162.869 401.206,167.203 400,176.5C 399.167,178.667 397.667,180.167 395.5,181C 369.988,186.711 344.654,193.045 319.5,200C 315.251,202.194 310.918,204.194 306.5,206C 298.547,211.618 290.88,217.618 283.5,224C 272.616,224.766 269.116,219.933 273,209.5C 286.933,194.613 303.766,184.447 323.5,179C 345.033,174.116 366.366,168.949 387.5,163.5 Z"/></g>
<g><path style="opacity:1" fill="#b0a18d" d="M 81.5,209.5 C 115.221,216.683 148.888,224.183 182.5,232C 219.626,242.627 243.626,266.46 254.5,303.5C 254.861,305.418 255.528,305.751 256.5,304.5C 266.298,268.533 288.965,244.7 324.5,233C 358.76,224.736 393.093,216.903 427.5,209.5C 428.552,209.351 429.552,209.517 430.5,210C 446.376,222.715 462.376,235.215 478.5,247.5C 416.335,272.076 354.002,296.409 291.5,320.5C 274.948,308.239 256.614,305.073 236.5,311C 230.338,312.989 224.672,315.822 219.5,319.5C 218.85,319.804 218.183,320.137 217.5,320.5C 155.655,296.335 93.988,272.002 32.5,247.5C 48.8333,234.833 65.1667,222.167 81.5,209.5 Z"/></g>
<g><path style="opacity:0.986" fill="#8d663d" d="M -0.5,273.5 C 84.7495,307.028 170.083,340.361 255.5,373.5C 340.844,340.493 426.177,307.493 511.5,274.5C 511.5,277.833 511.5,281.167 511.5,284.5C 507.05,304.464 495.383,318.63 476.5,327C 456.927,334.801 437.26,342.301 417.5,349.5C 380.072,363.699 342.739,378.199 305.5,393C 373.971,420.324 442.638,447.157 511.5,473.5C 511.5,476.167 511.5,478.833 511.5,481.5C 504.761,497.701 492.761,503.535 475.5,499C 402.258,470.21 328.924,441.71 255.5,413.5C 182.742,441.377 110.076,469.543 37.5,498C 19.8398,503.623 7.17311,498.123 -0.5,481.5C -0.5,478.833 -0.5,476.167 -0.5,473.5C 68.1774,446.773 136.844,419.939 205.5,393C 168.023,377.925 130.357,363.425 92.5,349.5C 73.6391,341.929 54.6391,334.429 35.5,327C 16.2827,318.359 4.28266,303.859 -0.5,283.5C -0.5,280.167 -0.5,276.833 -0.5,273.5 Z"/></g>
<g><path style="opacity:1" fill="#47433f" d="M 291.5,320.5 C 268.842,340.533 245.509,341.366 221.5,323C 220.177,322.184 219.511,321.017 219.5,319.5C 224.672,315.822 230.338,312.989 236.5,311C 256.614,305.073 274.948,308.239 291.5,320.5 Z"/></g>
<g><path style="opacity:0.993" fill="#c8ac7f" d="M 92.5,349.5 C 130.357,363.425 168.023,377.925 205.5,393C 136.844,419.939 68.1774,446.773 -0.5,473.5C -0.5,456.5 -0.5,439.5 -0.5,422.5C 2.07697,415.415 6.41031,409.581 12.5,405C 40.3864,396.982 64.2197,382.482 84,361.5C 87.4665,357.88 90.2999,353.88 92.5,349.5 Z"/></g>
<g><path style="opacity:0.993" fill="#7a5436" d="M 417.5,349.5 C 430.29,367.793 446.623,381.959 466.5,392C 477.086,396.529 487.753,400.862 498.5,405C 504.59,409.581 508.923,415.415 511.5,422.5C 511.5,439.5 511.5,456.5 511.5,473.5C 442.638,447.157 373.971,420.324 305.5,393C 342.739,378.199 380.072,363.699 417.5,349.5 Z"/></g>
</svg>
