<?xml version="1.0" encoding="UTF-8"?>
<!DOCTYPE svg PUBLIC "-//W3C//DTD SVG 1.1//EN" "http://www.w3.org/Graphics/SVG/1.1/DTD/svg11.dtd">
<svg xmlns="http://www.w3.org/2000/svg" version="1.1" width="512px" height="512px" style="shape-rendering:geometricPrecision; text-rendering:geometricPrecision; image-rendering:optimizeQuality; fill-rule:evenodd; clip-rule:evenodd" xmlns:xlink="http://www.w3.org/1999/xlink">
<g><path style="opacity:0.973" fill="#7a5436" d="M 236.5,-0.5 C 243.167,-0.5 249.833,-0.5 256.5,-0.5C 196.143,6.75707 149.31,35.7571 116,86.5C 88.605,132.267 81.9383,180.934 96,232.5C 110.194,279.107 130.527,322.774 157,363.5C 188.963,414.099 224.796,461.766 264.5,506.5C 263.139,508.527 261.473,510.194 259.5,511.5C 256.833,511.5 254.167,511.5 251.5,511.5C 200.664,454.532 156.164,392.865 118,326.5C 98.3476,291.534 84.0143,254.534 75,215.5C 64.4566,144.446 86.2899,85.6123 140.5,39C 168.836,16.9432 200.836,3.77648 236.5,-0.5 Z"/></g>
<g><path style="opacity:0.992" fill="#c8ac7f" d="M 256.5,-0.5 C 262.5,-0.5 268.5,-0.5 274.5,-0.5C 347.175,10.0058 398.008,49.0058 427,116.5C 442.178,157.485 443.178,198.818 430,240.5C 415.481,283.535 396.148,324.201 372,362.5C 339.8,413.202 303.967,461.202 264.5,506.5C 224.796,461.766 188.963,414.099 157,363.5C 130.527,322.774 110.194,279.107 96,232.5C 81.9383,180.934 88.605,132.267 116,86.5C 149.31,35.7571 196.143,6.75707 256.5,-0.5 Z M 375.5,257.5 C 360.5,257.5 345.5,257.5 330.5,257.5C 330.5,251.833 330.5,246.167 330.5,240.5C 330.5,210.167 330.5,179.833 330.5,149.5C 330.5,143.833 330.5,138.167 330.5,132.5C 330.666,125.492 330.5,118.492 330,111.5C 328.786,109.951 327.286,108.785 325.5,108C 282.835,107.5 240.168,107.333 197.5,107.5C 193.486,107.334 189.486,107.501 185.5,108C 183.714,108.785 182.214,109.951 181,111.5C 180.5,118.492 180.334,125.492 180.5,132.5C 180.5,138.167 180.5,143.833 180.5,149.5C 180.5,185.5 180.5,221.5 180.5,257.5C 165.5,257.5 150.5,257.5 135.5,257.5C 105.388,202.58 107.888,149.246 143,97.5C 185.916,46.7207 239.416,30.8874 303.5,50C 354.469,70.7329 384.969,108.233 395,162.5C 399.314,196.43 392.814,228.097 375.5,257.5 Z"/></g>
<g><path style="opacity:0.989" fill="#4b3f4e" d="M 197.5,107.5 C 197.5,115.833 197.5,124.167 197.5,132.5C 191.833,132.5 186.167,132.5 180.5,132.5C 180.334,125.492 180.5,118.492 181,111.5C 182.214,109.951 183.714,108.785 185.5,108C 189.486,107.501 193.486,107.334 197.5,107.5 Z"/></g>
<g><path style="opacity:0.991" fill="#5d5360" d="M 197.5,107.5 C 240.168,107.333 282.835,107.5 325.5,108C 327.286,108.785 328.786,109.951 330,111.5C 330.5,118.492 330.666,125.492 330.5,132.5C 286.167,132.5 241.833,132.5 197.5,132.5C 197.5,124.167 197.5,115.833 197.5,107.5 Z"/></g>
<g><path style="opacity:0.996" fill="#7a5437" d="M 180.5,132.5 C 186.167,132.5 191.833,132.5 197.5,132.5C 197.5,138.167 197.5,143.833 197.5,149.5C 191.833,149.5 186.167,149.5 180.5,149.5C 180.5,143.833 180.5,138.167 180.5,132.5 Z"/></g>
<g><path style="opacity:0.999" fill="#c6ab7f" d="M 197.5,132.5 C 241.833,132.5 286.167,132.5 330.5,132.5C 330.5,138.167 330.5,143.833 330.5,149.5C 286.167,149.5 241.833,149.5 197.5,149.5C 197.5,143.833 197.5,138.167 197.5,132.5 Z"/></g>
<g><path style="opacity:0.996" fill="#4b3f4e" d="M 180.5,149.5 C 186.167,149.5 191.833,149.5 197.5,149.5C 197.333,178.169 197.5,206.835 198,235.5C 198.785,237.286 199.951,238.786 201.5,240C 205.486,240.499 209.486,240.666 213.5,240.5C 213.5,246.167 213.5,251.833 213.5,257.5C 202.5,257.5 191.5,257.5 180.5,257.5C 180.5,221.5 180.5,185.5 180.5,149.5 Z"/></g>
<g><path style="opacity:0.999" fill="#5d5360" d="M 197.5,149.5 C 241.833,149.5 286.167,149.5 330.5,149.5C 330.5,179.833 330.5,210.167 330.5,240.5C 302.833,240.5 275.167,240.5 247.5,240.5C 247.667,225.83 247.5,211.163 247,196.5C 245.749,193.619 243.583,191.786 240.5,191C 233.833,190.333 227.167,190.333 220.5,191C 217.417,191.786 215.251,193.619 214,196.5C 213.5,211.163 213.333,225.83 213.5,240.5C 209.486,240.666 205.486,240.499 201.5,240C 199.951,238.786 198.785,237.286 198,235.5C 197.5,206.835 197.333,178.169 197.5,149.5 Z"/></g>
<g><path style="opacity:1" fill="#c6aa7f" d="M 247.5,240.5 C 236.167,240.5 224.833,240.5 213.5,240.5C 213.333,225.83 213.5,211.163 214,196.5C 215.251,193.619 217.417,191.786 220.5,191C 227.167,190.333 233.833,190.333 240.5,191C 243.583,191.786 245.749,193.619 247,196.5C 247.5,211.163 247.667,225.83 247.5,240.5 Z"/></g>
<g><path style="opacity:1" fill="#7a5538" d="M 213.5,240.5 C 224.833,240.5 236.167,240.5 247.5,240.5C 247.5,246.167 247.5,251.833 247.5,257.5C 236.167,257.5 224.833,257.5 213.5,257.5C 213.5,251.833 213.5,246.167 213.5,240.5 Z"/></g>
<g><path style="opacity:0.999" fill="#4b3f4e" d="M 247.5,240.5 C 275.167,240.5 302.833,240.5 330.5,240.5C 330.5,246.167 330.5,251.833 330.5,257.5C 302.833,257.5 275.167,257.5 247.5,257.5C 247.5,251.833 247.5,246.167 247.5,240.5 Z"/></g>
<g><path style="opacity:0.999" fill="#f9f4db" d="M 135.5,257.5 C 150.5,257.5 165.5,257.5 180.5,257.5C 191.5,257.5 202.5,257.5 213.5,257.5C 224.833,257.5 236.167,257.5 247.5,257.5C 275.167,257.5 302.833,257.5 330.5,257.5C 345.5,257.5 360.5,257.5 375.5,257.5C 347.125,300.119 307.125,322.453 255.5,324.5C 203.877,322.456 163.877,300.123 135.5,257.5 Z"/></g>
</svg>
