<svg xmlns="http://www.w3.org/2000/svg" width="293" height="179" viewBox="0 0 293 179" fill="none">
<path opacity="0.25" d="M146.236 178.634C215.769 178.634 272.136 165.516 272.136 149.334C272.136 133.152 215.769 120.034 146.236 120.034C76.7036 120.034 20.3362 133.152 20.3362 149.334C20.3362 165.516 76.7036 178.634 146.236 178.634Z" fill="#000000"/>
<path d="M244.836 7.93372L146.236 41.6337L47.5362 7.93372L0.336243 76.5337L146.236 126.434L292.036 76.5337L244.836 7.93372Z" fill="#163832"/>
<path opacity="0.45" d="M17.5363 73.7337L138.536 120.034L96.9363 78.8337C96.9363 78.8337 28.6363 62.3337 17.5363 73.7337Z" fill="#235347"/>
<path opacity="0.45" d="M274.936 73.7337L153.936 120.034L195.536 78.8337C195.436 78.8337 263.736 62.3337 274.936 73.7337Z" fill="#235347"/>
<path d="M146.236 126.434L0.336243 76.5337V83.0337L146.236 132.934L292.036 83.0337V76.5337L146.236 126.434Z" fill="#4f6653"/>
<path d="M68.5363 156.434L85.4363 112.134L139.836 130.734L68.5363 156.434Z" fill="#163832"/>
<path opacity="0.45" d="M73.2363 143.634L139.836 130.734L85.4363 112.134L73.2363 143.634Z" fill="#163832"/>
<path d="M146.236 128.434L68.5363 156.434L74.3363 162.534L146.236 136.934L218.036 162.534L223.936 156.434L146.236 128.434Z" fill="#4f6653"/>
<path d="M223.936 156.434L206.936 112.134L152.536 130.734L223.936 156.434Z" fill="#163832"/>
<path opacity="0.45" d="M219.136 143.634L152.536 130.734L206.936 112.134L219.136 143.634Z" fill="#163832"/>
<path d="M146.236 136.934C149.163 136.934 151.536 134.561 151.536 131.634C151.536 128.707 149.163 126.334 146.236 126.334C143.309 126.334 140.936 128.707 140.936 131.634C140.936 134.561 143.309 136.934 146.236 136.934Z" fill="white" fill-opacity="0.5"/>
<path d="M240.636 7.93372L146.236 54.9337L51.8363 7.93372C47.5363 13.6337 12.9363 71.3337 12.9363 71.3337C13.3363 71.3337 13.6363 71.4337 14.0363 71.4337C100.836 80.1337 124.936 107.434 132.936 114.034C140.936 120.734 146.336 120.034 146.336 120.034C146.336 120.034 151.736 120.734 159.736 114.034C167.736 107.434 191.836 80.1337 278.636 71.4337C279.036 71.4337 279.336 71.3337 279.736 71.3337C279.536 71.3337 244.836 13.7337 240.636 7.93372Z" fill="#A59719"/>
<path d="M279.536 71.3337C279.136 71.3337 278.836 71.4337 278.436 71.4337C191.636 80.1337 167.536 107.434 159.536 114.034C151.536 120.734 146.136 120.034 146.136 120.034C146.136 120.034 140.736 120.734 132.736 114.034C124.736 107.434 100.636 80.1337 13.8363 71.4337C13.4363 71.4337 13.1363 71.3337 12.7363 71.3337C12.0363 72.4337 12.7363 73.2337 12.7363 73.2337C100.436 81.7337 123.736 109.134 131.736 115.834C139.736 122.434 146.036 121.934 146.036 121.934C146.036 121.934 152.336 122.434 160.336 115.834C168.336 109.234 191.636 81.8337 279.336 73.2337C279.536 73.2337 280.236 72.4337 279.536 71.3337Z" fill="#4f6653"/>
<path d="M237.036 2.43371C188.736 -9.16629 146.136 30.5337 146.136 30.5337C146.136 30.5337 103.536 -9.16629 55.2363 2.43371C55.2363 2.43371 41.5363 23.4337 22.6363 59.1337C22.6363 59.1337 117.736 69.8337 146.136 109.734C174.536 69.8337 269.636 59.1337 269.636 59.1337C250.736 23.4337 237.036 2.43371 237.036 2.43371Z" fill="#F5EFFB"/>
<path d="M269.636 59.1337C269.636 59.1337 174.536 69.8337 146.136 109.734C117.836 69.8337 22.7363 59.1337 22.7363 59.1337C22.7363 59.1337 22.7363 62.3337 17.4363 68.6337C17.4363 68.6337 103.736 74.8337 135.136 110.634C142.536 119.034 146.136 118.034 146.136 118.034C146.136 118.034 149.836 119.034 157.136 110.634C188.436 74.8337 274.836 68.6337 274.836 68.6337C269.636 62.2337 269.636 59.1337 269.636 59.1337Z" fill="#DFCBF4"/>
<path d="M231.636 6.63371C231.636 6.63371 195.536 -2.5663 146.136 35.7337C96.8363 -2.4663 60.6363 6.63371 60.6363 6.63371L36.2363 54.0337C110.436 59.1337 146.136 96.6337 146.136 96.6337C146.136 96.6337 181.836 59.1337 256.036 54.0337L231.636 6.63371ZM146.236 92.1337C146.236 92.1337 112.836 57.9337 42.0363 51.2337L62.5363 8.63371C62.5363 8.63371 98.0363 1.73371 146.236 37.9337C194.436 1.73371 229.936 8.63371 229.936 8.63371L250.436 51.2337C179.636 57.9337 146.236 92.1337 146.236 92.1337Z" fill="#163832"/>
<path opacity="0.2" d="M155.336 71.4275C168.67 61.5942 210.336 39.8337 238.336 42.8337" stroke="#163832" stroke-width="3" stroke-linecap="round" fill="#000000"/>
<path opacity="0.2" d="M155.336 43.8337C167.17 34.5683 197.936 16.4145 226.336 17.9221" stroke="#163832" stroke-width="3" stroke-linecap="round" fill="#000000"/>
<path opacity="0.2" d="M155.336 57.8337C168.17 47.8556 201.536 28.3053 232.336 29.9289" stroke="#163832" stroke-width="3" stroke-linecap="round" fill="#000000"/>
<path opacity="0.2" d="M138.336 71.4275C125.003 61.5942 83.3363 39.8337 55.3363 42.8337" stroke="#163832" stroke-width="3" stroke-linecap="round" fill="#000000"/>
<path opacity="0.2" d="M138.336 43.8337C126.503 34.5683 95.7363 16.4145 67.3363 17.9221" stroke="#163832" stroke-width="3" stroke-linecap="round" fill="#000000"/>
<path opacity="0.2" d="M138.336 57.8337C125.503 47.8556 92.1363 28.3053 61.3363 29.9289" stroke="#163832" stroke-width="3" stroke-linecap="round" fill="#000000"/>
<path d="M146.236 30.5337C146.236 30.5337 147.236 27.0337 149.136 28.0337C149.136 28.0337 147.936 84.7337 149.936 106.834C150.436 112.334 155.236 119.834 157.136 122.634H154.636L153.936 124.934C153.936 124.934 146.536 112.434 146.236 107.534C144.736 85.5337 145.536 35.8337 146.236 30.5337Z" fill="#010e1c"/>
</svg>